<svg preserveAspectRatio="none" width="100%" height="100%" overflow="visible" style="display: block;" viewBox="0 0 37.3333 37.3333" fill="none" xmlns="http://www.w3.org/2000/svg">
<path id="Vector" d="M18.6667 37.3333C17.1928 37.3333 16 36.1392 16 34.6667V21.3333H2.66667C1.1928 21.3333 0 20.1392 0 18.6667C0 17.1941 1.1928 16 2.66667 16H16V2.66667C16 1.19413 17.1928 0 18.6667 0C20.1405 0 21.3333 1.19413 21.3333 2.66667V16H34.6667C36.1405 16 37.3333 17.1941 37.3333 18.6667C37.3333 20.1392 36.1405 21.3333 34.6667 21.3333H21.3333V34.6667C21.3333 36.1392 20.1405 37.3333 18.6667 37.3333Z" fill="var(--fill-0, #001489)"/>
</svg>
