<svg preserveAspectRatio="none" width="100%" height="100%" overflow="visible" style="display: block;" viewBox="0 0 18.0643 18.0633" fill="none" xmlns="http://www.w3.org/2000/svg">
<g id="Vector">
<path d="M9.40104 18.0633C9.09054 18.0633 8.77991 18.0145 8.47721 17.9163C7.81221 17.7 7.33758 17.2298 6.54948 16.4515L6.44303 16.3465L1.26823 11.1613C0.885427 10.7878 0.61204 10.5105 0.40104 10.1629C0.21354 9.82548 0.0992881 9.50179 0.0406881 9.1663C-0.0296119 8.8011 0.0026303 8.45672 0.0514303 7.93522L0.392251 4.19449C0.475251 3.19499 0.533887 2.5793 0.836587 2.0192C1.11099 1.5168 1.51898 1.10871 2.01798 0.836705C2.59508 0.524705 3.23008 0.470463 4.19108 0.388463L7.8151 0.0588733C8.4489 0.00177335 8.8005 -0.0314517 9.1862 0.0432483C9.526 0.102348 9.85996 0.226383 10.1628 0.408483C10.488 0.591583 10.7467 0.841581 11.1725 1.26688L16.3346 6.43827C17.236 7.34017 17.697 7.8001 17.9167 8.4744C18.113 9.076 18.113 9.71602 17.9196 10.3268C17.6891 11.0167 17.2077 11.4982 16.3337 12.3722L12.3737 16.3322C11.4977 17.2087 11.0141 17.6916 10.3256 17.9157C10.023 18.0144 9.71264 18.0633 9.40104 18.0633ZM8.68717 2.00028C8.55047 2.00028 8.35418 2.01838 8.09538 2.04178L4.36686 2.38114C3.62666 2.44414 3.16663 2.48952 2.97233 2.59452C2.81413 2.68092 2.6823 2.81282 2.5944 2.97342C2.4909 3.16432 2.44598 3.62137 2.38248 4.35087V4.37528L2.04289 8.1204C2.00969 8.4715 1.98821 8.70331 2.00871 8.80631C2.03121 8.93911 2.07201 9.0529 2.13151 9.1608C2.18421 9.2458 2.31508 9.38883 2.67448 9.73893L7.95573 15.029C8.51333 15.5803 8.88155 15.9444 9.09635 16.0138C9.29555 16.0792 9.5113 16.0783 9.7067 16.0138C9.9391 15.9381 10.3454 15.5324 10.9596 14.9181L14.9196 10.9582C15.5134 10.3644 15.9421 9.93568 16.0182 9.70768C16.0797 9.51238 16.0807 9.29449 16.0153 9.09379C15.944 8.87599 15.5632 8.4953 14.987 7.9191L9.75871 2.68119C9.42571 2.34919 9.26849 2.1994 9.15519 2.1359C9.04089 2.0671 8.93841 2.02979 8.82511 2.01029C8.78881 2.00319 8.74277 2.00028 8.68717 2.00028Z" fill="var(--fill-0, #001489)"/>
<path d="M5.64132 7.63744C5.10812 7.63744 4.60614 7.42941 4.22824 7.05151C3.45094 6.27321 3.45094 5.00656 4.22824 4.22826C5.00754 3.44896 6.27413 3.44948 7.05343 4.22778C7.83173 5.00658 7.83171 6.27321 7.05441 7.05151C6.67641 7.42941 6.17452 7.63744 5.64132 7.63744Z" fill="var(--fill-0, #001489)"/>
</g>
</svg>
