<svg preserveAspectRatio="none" width="100%" height="100%" overflow="visible" style="display: block;" viewBox="0 0 24.5233 37.5164" fill="none" xmlns="http://www.w3.org/2000/svg">
<g id="Spray">
<path id="Fill 171" fill-rule="evenodd" clip-rule="evenodd" d="M2.83507 34.6968L21.9161 35.5123C22.1675 35.5229 22.3816 35.3267 22.392 35.0762L15.6201 11.0589C15.6305 10.8088 15.4338 10.5948 15.1824 10.5843L11.638 10.4327C11.3866 10.4221 11.1725 10.6183 11.1621 10.8684L2.39734 34.2217C2.38697 34.4722 2.58402 34.6857 2.83507 34.6968" fill="var(--fill-0, #50A621)"/>
<path id="Fill 172" fill-rule="evenodd" clip-rule="evenodd" d="M11.9843 11.5282L14.8067 11.6535C15.6715 11.6917 16.4076 11.0104 16.4431 10.1394C16.4782 9.26811 15.7996 8.52406 14.9348 8.48538L12.1125 8.36048C11.248 8.32175 10.5115 9.00314 10.4765 9.87447C10.4414 10.7458 11.12 11.4898 11.9843 11.5282" fill="var(--fill-0, #50A621)"/>
<path id="Fill 173" fill-rule="evenodd" clip-rule="evenodd" d="M20.1959 2.8392L21.425 2.37989C21.7697 2.25141 21.9456 1.86581 21.8157 1.52329L21.4377 0.525245C21.3083 0.182682 20.9202 0.00776983 20.5755 0.136248L19.3464 0.595561C19.0022 0.723996 18.8263 1.10959 18.9557 1.45216L19.3337 2.45061C19.4636 2.79313 19.8512 2.96768 20.1959 2.8392" fill="var(--fill-0, #50A621)"/>
<path id="Fill 174" fill-rule="evenodd" clip-rule="evenodd" d="M19.1044 5.86058L17.8892 5.1758L16.5967 6.11925C16.5967 6.11925 17.4285 6.58541 18.1757 6.77092C18.9229 6.95683 19.5841 6.98371 19.5841 6.98371L19.1044 5.86058" fill="var(--fill-0, #D2D0D1)"/>
<path id="Fill 175" fill-rule="evenodd" clip-rule="evenodd" d="M17.5041 5.11919L20.1189 5.20919C20.643 5.22746 21.0924 4.83869 21.1174 4.34567C21.1424 3.85265 20.7345 3.4347 20.2105 3.41681L17.5953 3.32685C17.0713 3.30858 16.6222 3.69731 16.5968 4.19037C16.5718 4.68338 16.9801 5.1013 17.5041 5.11919" fill="var(--fill-0, #50A621)"/>
<path id="Fill 176" fill-rule="evenodd" clip-rule="evenodd" d="M12.9957 8.50026L13.8907 8.5367C14.5364 8.56275 15.0876 8.06508 15.1158 7.43033L15.2232 5.00022C15.251 4.36512 14.7457 3.8244 14.0999 3.79835L13.205 3.7619C12.5588 3.7355 12.0076 4.23317 11.9794 4.86832L11.8724 7.29838C11.8442 7.93313 12.3499 8.47381 12.9957 8.50026" fill="var(--fill-0, #D2D0D1)"/>
<path id="Fill 177" fill-rule="evenodd" clip-rule="evenodd" d="M12.0604 5.53422C12.0996 5.7046 12.1666 5.86965 12.263 6.02552L12.7165 6.755C13.1937 7.52146 14.2057 7.75918 14.9694 7.28507L15.1118 7.19621L19.3451 4.56037C19.7313 4.32245 19.9803 3.94552 20.0729 3.53284C20.1344 3.25924 20.1275 2.97243 20.044 2.69727C20.0054 2.56302 19.9457 2.43179 19.8691 2.30639L19.4157 1.5769C19.1238 1.10507 18.6285 0.834621 18.1147 0.806051L17.5276 0.921756L17.398 0.947465L17.2208 1.01352L17.1627 1.04684L12.7871 3.77154L12.7697 3.78352C12.1737 4.16368 11.9068 4.87677 12.0604 5.53422" fill="var(--fill-0, #D2D0D1)"/>
<path id="Fill 178" fill-rule="evenodd" clip-rule="evenodd" d="M11.6852 8.56311L15.0322 8.75648C15.2114 8.76665 15.3631 8.61438 15.3685 8.41787C15.3739 8.22093 15.2319 8.05161 15.0526 8.04143L11.7056 7.84807C11.526 7.83793 11.3747 7.99017 11.3693 8.18711C11.3635 8.38365 11.5059 8.55294 11.6852 8.56311" fill="var(--fill-0, #72B64E)"/>
<path id="Fill 179" fill-rule="evenodd" clip-rule="evenodd" d="M17.4077 0.894684L17.4642 0.932597L20.1324 2.69615L20.1178 2.63238L19.6415 0.582284L18.1435 0.751442L17.5407 0.868645L17.4077 0.894684" fill="var(--fill-0, #D2D0D1)"/>
<path id="Fill 180" fill-rule="evenodd" clip-rule="evenodd" d="M12.0353 3.06923L12.0165 3.79944L11.9712 5.46966L12.0623 5.39534L17.5658 0.97127L17.6417 0.909148L17.5099 0.934671L17.3295 0.99944L12.5316 2.87568L12.0353 3.06923" fill="var(--fill-0, #D2D0D1)"/>
<path id="Fill 181" fill-rule="evenodd" clip-rule="evenodd" d="M12.0447 6.76806C12.1451 6.77223 12.2456 6.73004 12.3111 6.64512C12.4181 6.50667 12.3918 6.30852 12.2523 6.20227C12.1017 6.08744 10.7644 5.07392 10.2526 4.86782C9.73827 4.66077 8.74171 4.63942 8.38388 4.62996C8.20852 4.62588 8.0625 4.76351 8.05801 4.93763C8.05375 5.1101 8.18942 5.25375 8.36229 5.26135C9.15052 5.28083 9.69816 5.32622 10.0135 5.45316C10.3802 5.60037 11.4746 6.40537 11.865 6.70343C11.9189 6.74457 11.9818 6.76567 12.0447 6.76806" fill="var(--fill-0, #D2D0D1)"/>
<path id="Fill 182" fill-rule="evenodd" clip-rule="evenodd" d="M9.54306 5.15505C9.60127 5.25034 9.69964 5.3054 9.80176 5.31044C9.86335 5.31335 9.92778 5.29646 9.98474 5.25956L12.1628 3.84197L12.77 3.44742C12.9185 3.35135 12.9623 3.14703 12.8678 2.99317C12.8198 2.91632 12.7467 2.86669 12.6688 2.84978L12.1751 3.05436L9.64079 4.70335C9.49263 4.79938 9.44861 5.00119 9.54306 5.15505" fill="var(--fill-0, #D2D0D1)"/>
<path id="Fill 183" fill-rule="evenodd" clip-rule="evenodd" d="M12.0557 4.59566L11.4072 5.73101L12.3794 6.36612L12.0557 4.59566" fill="var(--fill-0, #D2D0D1)"/>
<path id="Fill 184" fill-rule="evenodd" clip-rule="evenodd" d="M20.8141 5.12875C20.8141 5.12875 21.696 7.57906 22.4463 8.7907C23.052 9.77014 24.5233 11.5062 24.5233 11.5062C24.5233 11.5062 22.5605 11.5603 21.0594 9.754C19.5579 7.94777 19.5579 7.94777 19.5579 7.94777L18.6853 7.65296L18.912 5.05484L20.8141 5.12875" fill="var(--fill-0, #50A621)"/>
<path id="Fill 185" fill-rule="evenodd" clip-rule="evenodd" d="M18.4073 3.25439C18.3924 3.60086 18.6624 3.89398 19.0101 3.9087C19.3577 3.92342 19.6516 3.65467 19.666 3.30825C19.6805 2.96182 19.4105 2.6691 19.0629 2.65398C18.7152 2.63927 18.4217 2.90797 18.4073 3.25439" fill="var(--fill-0, white)"/>
<path id="Fill 186" fill-rule="evenodd" clip-rule="evenodd" d="M18.8922 30.1749C19.225 30.0824 19.4213 29.7324 19.328 29.3978L17.2784 22.0409C17.1851 21.706 16.8366 21.5081 16.5038 21.601C16.1707 21.6938 15.9747 22.0434 16.068 22.378L18.1176 29.7353C18.2109 30.0699 18.5594 30.2677 18.8922 30.1749" fill="var(--fill-0, #91EC61)"/>
<path id="Fill 187" fill-rule="evenodd" clip-rule="evenodd" d="M16.1442 20.2083L16.2806 20.1711C16.5679 20.0923 16.7379 19.7986 16.6585 19.5181L16.3117 18.2968C16.2323 18.0163 15.9322 17.8512 15.6445 17.9297L15.5081 17.9672C15.2208 18.0457 15.0508 18.3394 15.1306 18.6202L15.477 19.8412C15.5564 20.1221 15.8569 20.2871 16.1442 20.2083" fill="var(--fill-0, #91EC61)"/>
</g>
</svg>
