<svg preserveAspectRatio="none" width="100%" height="100%" overflow="visible" style="display: block;" viewBox="0 0 43.155 52.3109" fill="none" xmlns="http://www.w3.org/2000/svg">
<g id="Lamp">
<path id="Fill 92" fill-rule="evenodd" clip-rule="evenodd" d="M28.4191 4.63098L26.7161 1.2207e-05L24.2089 1.03241L26.5027 5.2311L28.4191 4.63098" fill="var(--fill-0, #FEC299)"/>
<path id="Fill 93" fill-rule="evenodd" clip-rule="evenodd" d="M30.8669 8.36973L1.05263 21.5137L2.47223 24.063L31.5768 12.1L30.8669 8.36973" fill="var(--fill-0, #FEC299)"/>
<path id="Fill 94" fill-rule="evenodd" clip-rule="evenodd" d="M4.50553 23.0168L16.8409 51.2647H13.1096L2.10512 24.6211L4.50553 23.0168" fill="var(--fill-0, #FEC299)"/>
<path id="Fill 95" fill-rule="evenodd" clip-rule="evenodd" d="M43.155 17.3061L31.6079 2.09236L21.0512 6.36876L25.8328 24.0629L43.155 17.3061" fill="var(--fill-0, #FECA3E)"/>
<path id="Fill 96" fill-rule="evenodd" clip-rule="evenodd" d="M0 23.0169C0 24.7501 1.41362 26.1555 3.15768 26.1555C4.90174 26.1555 6.31537 24.7501 6.31537 23.0169C6.31537 21.2836 4.90174 19.8782 3.15768 19.8782C1.41362 19.8782 0 21.2836 0 23.0169" fill="var(--fill-0, #FECA3E)"/>
<path id="Fill 97" fill-rule="evenodd" clip-rule="evenodd" d="M28.2098 49.1722L28.4191 52.3108L0 52.3077V49.1722H28.2098" fill="var(--fill-0, #FFBB02)"/>
</g>
</svg>
