<svg preserveAspectRatio="none" width="100%" height="100%" overflow="visible" style="display: block;" viewBox="0 0 113.353 25.7861" fill="none" xmlns="http://www.w3.org/2000/svg">
<path id="Wordmark" d="M20.6484 0C22.2449 2.02317e-06 23.3508 1.22341 23.1182 2.73145L19.6182 25.417C19.5867 25.6197 19.4001 25.7859 19.2031 25.7861H14.0644C13.8676 25.7861 13.7316 25.6198 13.7627 25.417L14.9414 17.7812C14.9727 17.5783 14.8368 17.4121 14.6396 17.4121H8.8125C8.61545 17.4121 8.40264 17.5716 8.33984 17.7666L5.87207 25.4316C5.80915 25.6263 5.59718 25.7859 5.40039 25.7861H0.261714C0.0647689 25.786 -0.044965 25.6264 0.0175733 25.4316L7.32519 2.73145C7.81081 1.22345 9.49887 6.66158e-05 11.0957 0H20.6484ZM41.5947 0C43.1909 0 44.2967 1.22263 44.0644 2.73047L43.1748 8.51953C43.1435 8.72246 42.9568 8.88867 42.7598 8.88867H37.6211C37.4246 8.88818 37.2892 8.72219 37.3203 8.51953L37.7285 5.85156C37.8034 5.3654 37.4468 4.97081 36.9326 4.9707H33.0859C32.5714 4.97091 32.0924 5.36546 32.0176 5.85156L29.8447 19.9346C29.7701 20.4205 30.1263 20.814 30.6406 20.8145H34.4873C35.002 20.8145 35.4807 20.4208 35.5557 19.9346L35.9697 17.2656C36.0014 17.063 36.188 16.8968 36.3848 16.8965H41.5225C41.7195 16.8965 41.8555 17.0628 41.8242 17.2656L40.9287 23.0547C40.6959 24.5629 39.2129 25.7852 37.6162 25.7852H25.9785C24.3822 25.785 23.2762 24.5627 23.5088 23.0547L26.6445 2.73047C26.8773 1.22279 28.3606 0.000202475 29.957 0H41.5947ZM62.3252 0C62.5219 0.000109881 62.6572 0.16633 62.626 0.369141L61.7978 5.72559C61.7662 5.92825 61.5797 6.0946 61.3828 6.09473H56.9424C56.7458 6.09522 56.559 6.2605 56.5273 6.46289L53.6055 25.416C53.5741 25.6191 53.3865 25.7852 53.1894 25.7852H48.0518C47.855 25.7849 47.7187 25.6189 47.75 25.416L50.6728 6.46289C50.7037 6.26021 50.5679 6.09473 50.3711 6.09473H46.1172C45.9206 6.09436 45.7853 5.92812 45.8164 5.72559L46.6445 0.369141C46.676 0.166399 46.8628 0.000222757 47.0596 0H62.3252ZM70.3935 0.000976562C70.5905 0.000976562 70.7266 0.167239 70.6953 0.370117L66.831 25.416C66.7998 25.6188 66.6128 25.7849 66.416 25.7852H61.2773C61.0807 25.7848 60.9452 25.6187 60.9766 25.416L64.8408 0.370117C64.8722 0.167375 65.059 0.00119918 65.2559 0.000976562H70.3935ZM98.8516 0.000976562C99.0485 0.000999403 99.2851 0.149892 99.3779 0.331055L105.447 12.2119C105.54 12.3933 105.642 12.3757 105.673 12.1729L107.494 0.370117C107.525 0.167243 107.712 0.001199 107.909 0.000976562H113.047C113.244 0.000976562 113.38 0.167107 113.349 0.370117L109.484 25.416C109.453 25.619 109.267 25.7852 109.069 25.7852H105.808C105.611 25.785 105.373 25.6373 105.28 25.4561L99.2109 13.5742C99.1184 13.3936 99.0177 13.4109 98.9863 13.6133L97.166 25.416C97.1347 25.619 96.947 25.7852 96.75 25.7852H91.6113C91.4146 25.7848 91.279 25.6188 91.3105 25.416L95.1748 0.370117C95.2061 0.167243 95.393 0.001199 95.5898 0.000976562H98.8516ZM88.8057 0C90.4019 0.000142639 91.507 1.20984 91.2744 2.70117L88.1396 22.8018C87.907 24.2934 86.4234 25.5029 84.8271 25.5029H73.1885C71.592 25.5027 70.4867 24.2932 70.7197 22.8018L73.8545 2.70117C74.0872 1.20987 75.5708 0.000200371 77.167 0H88.8057ZM80.2959 4.91602C79.7814 4.91622 79.3029 5.30637 79.2275 5.78711L77.0547 19.7158C76.9801 20.1966 77.3368 20.5867 77.8516 20.5869H81.6982C82.2128 20.5869 82.6905 20.1967 82.7656 19.7158L84.9385 5.78711C85.013 5.30627 84.6572 4.91603 84.1426 4.91602H80.2959ZM13.3916 4.9707C12.8769 4.9707 12.332 5.36524 12.1758 5.85156L10.1689 12.0859C10.1061 12.2808 10.2162 12.4404 10.4131 12.4404H15.4062C15.6033 12.4404 15.791 12.2743 15.8223 12.0713L16.7812 5.85156C16.8563 5.36524 16.4998 4.9707 15.9853 4.9707H13.3916Z" fill="var(--fill-0, white)"/>
</svg>
