<svg preserveAspectRatio="none" width="100%" height="100%" overflow="visible" style="display: block;" viewBox="0 0 26.1556 37.4118" fill="none" xmlns="http://www.w3.org/2000/svg">
<g id="Clock Copy">
<path id="Fill 57" fill-rule="evenodd" clip-rule="evenodd" d="M22.6927 6.97288C22.2021 6.97288 21.8495 6.85951 21.6147 6.62612C21.229 6.24231 21.2581 5.64727 21.2921 4.9585C21.3365 4.05218 21.3872 3.02457 20.5426 2.18474C20.0342 1.6787 19.2326 1.2838 18.1602 1.0102C16.88 0.683703 15.1698 0.518081 13.077 0.518398C9.09586 0.519031 6.47836 1.11786 5.29619 2.29875C4.38822 3.20571 4.44793 4.32072 4.49597 5.21691C4.52966 5.84298 4.55868 6.38418 4.23145 6.71099C4.05366 6.88864 3.80215 6.97509 3.46291 6.97509C3.31213 6.97509 3.18972 6.85887 3.18972 6.71574C3.18972 6.5726 3.31213 6.45638 3.46291 6.45638C3.73243 6.45638 3.81015 6.37911 3.8355 6.35346C4.00129 6.18815 3.9766 5.72929 3.95058 5.2432C3.89988 4.30077 3.83083 3.01 4.90025 1.94154C6.2075 0.635568 8.88205 0.000317178 13.077 5.0292e-07C17.1302 -0.000632848 19.7013 0.596934 20.9378 1.82658C21.9439 2.82696 21.8848 4.02241 21.8378 4.98289C21.8098 5.55259 21.7854 6.0447 22.0099 6.26796C22.136 6.39336 22.3592 6.45416 22.6924 6.45416C22.8435 6.45416 22.9659 6.57006 22.9659 6.7132C22.9659 6.85666 22.8435 6.97288 22.6927 6.97288" fill="var(--fill-0, #FFE466)"/>
<path id="Fill 58" fill-rule="evenodd" clip-rule="evenodd" d="M4.3051 4.75574C4.21993 4.75574 4.14988 4.68989 4.14823 4.60756C4.13179 3.7989 4.22683 2.75878 5.11803 1.88362C6.40814 0.61679 9.01894 0.000633383 13.1004 1.28085e-07C17.0681 -0.000316499 19.5855 0.586394 20.7957 1.79401C21.6356 2.63212 21.7188 3.62253 21.6836 4.56798C21.6806 4.65126 21.6092 4.71743 21.5211 4.71363C21.4343 4.71078 21.3665 4.64049 21.3698 4.5569C21.4024 3.67858 21.3281 2.76099 20.5694 2.00394C19.4217 0.858694 16.9786 0.302063 13.1004 0.302696C10.9668 0.302696 9.21001 0.479374 7.87912 0.827664C6.75246 1.12244 5.89907 1.54894 5.34264 2.09544C4.53793 2.88574 4.44618 3.80555 4.46229 4.60155C4.46394 4.68514 4.39521 4.75384 4.30839 4.75574C4.3074 4.75574 4.30641 4.75574 4.3051 4.75574" fill="var(--fill-0, #FFE466)"/>
<path id="Fill 59" fill-rule="evenodd" clip-rule="evenodd" d="M6.46919 1.2682C6.43543 1.2682 6.4033 1.24796 6.3879 1.21341C6.36692 1.16595 6.38626 1.10906 6.43116 1.08673C7.87765 0.366082 10.0905 0.000349247 13.0077 2.65181e-07C15.9157 -0.000348716 18.0086 0.343747 19.4062 1.05218C19.4508 1.07486 19.4698 1.13175 19.4485 1.17921C19.4272 1.22667 19.3738 1.24691 19.3292 1.22423C17.9752 0.537781 15.8485 0.190195 13.0077 0.190544C10.1167 0.190893 7.92943 0.550344 6.50688 1.25947C6.49475 1.26541 6.48164 1.2682 6.46919 1.2682" fill="var(--fill-0, #FFE466)"/>
<path id="Fill 60" fill-rule="evenodd" clip-rule="evenodd" d="M19.8679 14.5843L19.4573 14.4315L22.5553 5.70696L22.966 5.85977L19.8679 14.5843" fill="var(--fill-0, #FE8B28)"/>
<path id="Fill 61" fill-rule="evenodd" clip-rule="evenodd" d="M23.5049 8.88708C23.1966 9.74895 20.1275 8.61325 20.4358 7.75138C20.7442 6.88951 21.6813 6.44499 22.5287 6.75858C23.3762 7.07216 23.8133 8.0252 23.5049 8.88708" fill="var(--fill-0, #FFC84B)"/>
<path id="Fill 62" fill-rule="evenodd" clip-rule="evenodd" d="M22.6481 6.975C22.8559 8.01839 22.543 8.7594 21.7247 8.98979C21.7125 8.99318 21.7018 8.99779 21.6901 9.00117C22.0746 9.1156 22.471 9.18789 22.8035 9.19435C23.1485 9.18666 23.4101 9.0993 23.4931 8.90243C23.8071 8.15773 23.4315 7.34228 22.6481 6.975" fill="var(--fill-0, #FFC84B)"/>
<path id="Fill 63" fill-rule="evenodd" clip-rule="evenodd" d="M23.5903 12.7648C23.4334 13.17 21.956 13.0363 20.2901 12.4651C18.6238 11.8942 17.4 11.1025 17.5569 10.697C17.7134 10.2914 19.1912 10.4254 20.8571 10.9967C22.5234 11.5676 23.7469 12.3592 23.5903 12.7648" fill="var(--fill-0, #FFE466)"/>
<path id="Fill 64" fill-rule="evenodd" clip-rule="evenodd" d="M23.5989 9.08671L20.3195 7.9262L19.8294 8.26678C18.9324 8.88982 18.2507 9.7626 17.8737 10.7698C17.7344 11.1431 18.9015 11.8986 20.4812 12.4576C22.061 13.0165 23.4546 13.1672 23.5942 12.7942C23.9709 11.7866 24.0252 10.6919 23.7497 9.65392L23.5989 9.08671" fill="var(--fill-0, #FFC84B)"/>
<path id="Fill 65" fill-rule="evenodd" clip-rule="evenodd" d="M20.5324 8.58108C19.8489 8.73349 19.1335 9.51584 18.8848 10.1371C18.7413 10.496 18.8405 10.8469 19.1131 11.115C19.4012 11.3979 19.8847 11.474 20.2676 11.3683C21.1266 11.1305 21.4672 9.99949 21.348 9.2181C21.2819 8.7844 21.007 8.47571 20.5324 8.58108" fill="var(--fill-0, #FFE466)"/>
<path id="Fill 66" fill-rule="evenodd" clip-rule="evenodd" d="M23.2225 12.637C23.6356 11.5919 23.7153 10.4494 23.451 9.35908L23.3411 8.90595L22.3685 8.56033L22.3834 9.15639C22.3999 10.2356 22.1466 11.4078 21.6901 12.5266C22.3756 12.6825 22.9339 12.7246 23.2225 12.637" fill="var(--fill-0, #FFC84B)"/>
<path id="Fill 67" fill-rule="evenodd" clip-rule="evenodd" d="M21.9794 7.18036C22.0851 7.39633 21.8986 7.69256 21.5627 7.84182C21.2265 7.99109 20.8684 7.93693 20.7627 7.72096C20.657 7.50465 20.8438 7.20843 21.1794 7.05916C21.5153 6.91023 21.8737 6.96405 21.9794 7.18036" fill="var(--fill-0, #FFE466)"/>
<path id="Fill 68" fill-rule="evenodd" clip-rule="evenodd" d="M23.2461 6.55765C23.1259 6.88675 22.7601 7.05639 22.4289 6.93687C22.0978 6.81701 21.9271 6.45321 22.0477 6.12411C22.1679 5.79536 22.5337 5.62573 22.8649 5.74524C23.1961 5.86511 23.3668 6.2289 23.2461 6.55765" fill="var(--fill-0, #FFC84B)"/>
<path id="Fill 69" fill-rule="evenodd" clip-rule="evenodd" d="M23.203 6.02391C23.2062 6.1077 23.1965 6.19362 23.1723 6.27741C23.0736 6.61719 22.7741 6.79224 22.5027 6.66853C22.4361 6.63822 22.3772 6.59223 22.328 6.53554C22.3704 6.71559 22.4776 6.8689 22.629 6.93807C22.8827 7.05358 23.1632 6.88958 23.2554 6.57155C23.3106 6.38187 23.2858 6.18043 23.203 6.02391" fill="var(--fill-0, #FE8B28)"/>
<path id="Fill 70" fill-rule="evenodd" clip-rule="evenodd" d="M22.945 6.104C23.0077 6.18005 22.9251 6.2769 22.7607 6.32019C22.5964 6.36347 22.4121 6.33693 22.349 6.26088C22.2863 6.18483 22.3689 6.08797 22.5332 6.04469C22.6976 6.0014 22.8819 6.02795 22.945 6.104" fill="var(--fill-0, #FFE466)"/>
<path id="Fill 71" fill-rule="evenodd" clip-rule="evenodd" d="M6.28832 14.5843L6.6984 14.4312L3.60011 5.70696L3.18972 5.86011L6.28832 14.5843" fill="var(--fill-0, #FE8B28)"/>
<path id="Fill 72" fill-rule="evenodd" clip-rule="evenodd" d="M2.65064 8.88721C2.95932 9.74899 6.02835 8.61277 5.71967 7.75098C5.41099 6.8892 4.47381 6.44505 3.6266 6.7586C2.77907 7.07248 2.34227 8.02542 2.65064 8.88721" fill="var(--fill-0, #FFC84B)"/>
<path id="Fill 73" fill-rule="evenodd" clip-rule="evenodd" d="M3.50695 6.975C3.29955 8.01853 3.61279 8.75965 4.43135 8.98976C4.44311 8.99284 4.45416 8.99776 4.46556 9.00115C4.08105 9.1159 3.68478 9.18789 3.35229 9.19435C3.00769 9.18696 2.74576 9.0999 2.66273 8.9027C2.34842 8.1582 2.72403 7.34233 3.50695 6.975" fill="var(--fill-0, #FFC84B)"/>
<path id="Fill 74" fill-rule="evenodd" clip-rule="evenodd" d="M2.2463 12.765C2.40319 13.1703 3.88074 13.0357 5.5471 12.4647C7.21278 11.8937 8.43631 11.1021 8.27976 10.6968C8.12288 10.2914 6.64533 10.4256 4.97931 10.997C3.31295 11.568 2.08975 12.3596 2.2463 12.765" fill="var(--fill-0, #FFE466)"/>
<path id="Fill 75" fill-rule="evenodd" clip-rule="evenodd" d="M2.55609 9.08724L5.83528 7.9262L6.32577 8.26675C7.22284 8.88939 7.9049 9.76174 8.28193 10.7689C8.42154 11.1421 7.25443 11.8979 5.67496 12.4571C4.09548 13.0163 2.70181 13.1673 2.56187 12.7943C2.18483 11.7872 2.13048 10.6926 2.40562 9.65472L2.55609 9.08724" fill="var(--fill-0, #FFC84B)"/>
<path id="Fill 76" fill-rule="evenodd" clip-rule="evenodd" d="M5.62296 8.58106C6.30642 8.73316 7.02206 9.51558 7.27068 10.1366C7.41421 10.4959 7.31535 10.8468 7.04243 11.1149C6.75472 11.3975 6.27128 11.4742 5.88833 11.3682C5.0295 11.131 4.68859 9.9996 4.80748 9.21847C4.87349 8.78472 5.14806 8.47569 5.62296 8.58106" fill="var(--fill-0, #FFE466)"/>
<path id="Fill 77" fill-rule="evenodd" clip-rule="evenodd" d="M2.93383 12.6371C2.52053 11.592 2.4402 10.4495 2.70418 9.35911L2.81398 8.90596L3.78634 8.56033L3.77144 9.1561C3.75525 10.2354 4.00886 11.4076 4.46556 12.5264C3.78019 12.6826 3.22242 12.7244 2.93383 12.6371" fill="var(--fill-0, #FFC84B)"/>
<path id="Fill 78" fill-rule="evenodd" clip-rule="evenodd" d="M4.17622 7.18053C4.07049 7.39653 4.25699 7.69278 4.59323 7.84207C4.92913 7.99102 5.28722 7.93686 5.39294 7.72086C5.49867 7.50453 5.31183 7.2086 4.97593 7.05932C4.64003 6.91003 4.28195 6.9642 4.17622 7.18053" fill="var(--fill-0, #FFE466)"/>
<path id="Fill 79" fill-rule="evenodd" clip-rule="evenodd" d="M2.59029 6.55817C2.71086 6.88692 3.0768 7.05655 3.40783 6.93669C3.73887 6.81682 3.9095 6.45303 3.78893 6.12429C3.66836 5.79519 3.30242 5.62556 2.97139 5.74542C2.64035 5.86528 2.47007 6.22908 2.59029 6.55817" fill="var(--fill-0, #FFC84B)"/>
<path id="Fill 80" fill-rule="evenodd" clip-rule="evenodd" d="M2.95245 6.02391C2.9496 6.10771 2.95927 6.19365 2.98372 6.27745C3.0821 6.61729 3.38177 6.79238 3.65273 6.66864C3.71954 6.63797 3.77811 6.59197 3.82758 6.53527C3.78494 6.71536 3.67803 6.86869 3.52649 6.93787C3.27288 7.05377 2.99254 6.88973 2.90013 6.57165C2.84497 6.38194 2.86999 6.18046 2.95245 6.02391" fill="var(--fill-0, #FFC84B)"/>
<path id="Fill 81" fill-rule="evenodd" clip-rule="evenodd" d="M3.21075 6.10401C3.14804 6.18008 3.23024 6.27671 3.39505 6.32024C3.55944 6.36354 3.74374 6.33675 3.80645 6.26068C3.86958 6.18462 3.78696 6.08799 3.62257 6.04469C3.45818 6.0014 3.27388 6.02795 3.21075 6.10401" fill="var(--fill-0, #FFE466)"/>
<path id="Fill 82" fill-rule="evenodd" clip-rule="evenodd" d="M4.23288 36.4606L3.50876 36.0711L5.41222 31.7049L7.33641 32.7403L4.23288 36.4606" fill="var(--fill-0, #FFC84B)"/>
<path id="Fill 83" fill-rule="evenodd" clip-rule="evenodd" d="M5.70736 32.0221L3.50876 36.3888L3.64189 36.4608L6.06053 32.214L5.70736 32.0221" fill="var(--fill-0, #FFC84B)"/>
<path id="Fill 84" fill-rule="evenodd" clip-rule="evenodd" d="M4.14662 36.6803L4.32134 36.7777L7.33634 33.0265L6.67349 32.6561L4.14662 36.6803" fill="var(--fill-0, #FFC84B)"/>
<path id="Fill 85" fill-rule="evenodd" clip-rule="evenodd" d="M3.50876 36.0868L4.17501 36.4607L4.78464 35.6984C4.62293 35.4486 4.35768 35.2631 4.03488 35.208C3.98389 35.1992 3.93291 35.1943 3.88255 35.1925L3.50876 36.0868" fill="var(--fill-0, #FFC84B)"/>
<path id="Fill 86" fill-rule="evenodd" clip-rule="evenodd" d="M2.92868 36.786C3.10943 37.2793 3.65847 37.5338 4.15481 37.3541C4.65148 37.1745 4.90725 36.6285 4.72649 36.1352C4.54574 35.6419 3.99702 35.3874 3.50036 35.5671C3.00369 35.7467 2.74792 36.2927 2.92868 36.786" fill="var(--fill-0, #FFC84B)"/>
<path id="Fill 87" fill-rule="evenodd" clip-rule="evenodd" d="M3.03429 36.1436C3.02803 36.2552 3.0475 36.37 3.09618 36.4816C3.29371 36.9345 3.89287 37.1681 4.43501 37.003C4.56855 36.9626 4.68609 36.9013 4.7845 36.8255C4.69965 37.0655 4.48544 37.2702 4.18255 37.3623C3.67518 37.5166 3.11427 37.2981 2.92961 36.874C2.81938 36.6208 2.86911 36.3523 3.03429 36.1436" fill="var(--fill-0, #FFC84B)"/>
<path id="Fill 88" fill-rule="evenodd" clip-rule="evenodd" d="M3.54026 35.9868C3.44624 36.1392 3.56978 36.3325 3.81647 36.4193C4.06355 36.5056 4.34016 36.4526 4.43417 36.3003C4.52819 36.1482 4.40465 35.9546 4.15796 35.8681C3.91126 35.7815 3.63466 35.8348 3.54026 35.9868" fill="var(--fill-0, #FFC84B)"/>
<path id="Fill 89" fill-rule="evenodd" clip-rule="evenodd" d="M21.923 36.4606L22.6469 36.0708L20.7429 31.7049L18.8193 32.7407L21.923 36.4606" fill="var(--fill-0, #FFC84B)"/>
<path id="Fill 90" fill-rule="evenodd" clip-rule="evenodd" d="M20.1295 32.0221L22.3279 36.3885L22.1949 36.4608L19.7762 32.214L20.1295 32.0221" fill="var(--fill-0, #FFC84B)"/>
<path id="Fill 91" fill-rule="evenodd" clip-rule="evenodd" d="M22.009 36.6803L21.8343 36.7777L18.8193 33.0265L19.4819 32.6561L22.009 36.6803" fill="var(--fill-0, #FFC84B)"/>
<path id="Fill 92" fill-rule="evenodd" clip-rule="evenodd" d="M22.6469 36.0865L21.9807 36.4607L21.371 35.6987C21.5324 35.4486 21.798 35.2634 22.1205 35.208C22.1715 35.1992 22.2225 35.1943 22.2728 35.1925L22.6469 36.0865" fill="var(--fill-0, #FFC84B)"/>
<path id="Fill 93" fill-rule="evenodd" clip-rule="evenodd" d="M23.2269 36.7857C23.0465 37.2793 22.4975 37.5338 22.0008 37.3541C21.5045 37.1745 21.2484 36.6292 21.4288 36.1356C21.6096 35.6419 22.1586 35.3874 22.6552 35.5671C23.1516 35.7467 23.4076 36.2921 23.2269 36.7857" fill="var(--fill-0, #FFC84B)"/>
<path id="Fill 94" fill-rule="evenodd" clip-rule="evenodd" d="M23.1207 36.1436C23.1273 36.2555 23.1075 36.37 23.0592 36.4815C22.862 36.9346 22.2626 37.1682 21.7208 37.0035C21.587 36.9628 21.4694 36.9015 21.371 36.8259C21.4559 37.0656 21.6704 37.2702 21.9733 37.3623C22.4806 37.5166 23.0414 37.2978 23.2261 36.8741C23.3363 36.6207 23.2862 36.3522 23.1207 36.1436" fill="var(--fill-0, #FFC84B)"/>
<path id="Fill 95" fill-rule="evenodd" clip-rule="evenodd" d="M22.2963 35.9868C22.3907 36.1388 22.2671 36.3324 22.02 36.419C21.7733 36.5058 21.4971 36.4526 21.4027 36.3005C21.3083 36.1482 21.4322 35.9549 21.6785 35.8681C21.9256 35.7815 22.2022 35.8347 22.2963 35.9868" fill="var(--fill-0, #FFC84B)"/>
<path id="Fill 96" fill-rule="evenodd" clip-rule="evenodd" d="M13.3968 10.7796H12.4403L12.4399 8.87734H13.3968V10.7796" fill="var(--fill-0, #FE8B28)"/>
<path id="Fill 97" fill-rule="evenodd" clip-rule="evenodd" d="M25.298 18.907C26.7685 22.7728 26.338 27.2947 24.083 30.7977C21.5309 34.7622 16.6616 36.8702 11.8918 36.3945C5.78016 35.7849 0.508611 30.9067 0.0375152 24.9002C-0.309486 20.4774 1.77119 15.9011 5.42983 13.2299C9.90358 9.96363 16.3356 9.98073 20.8596 13.175C22.9821 14.6735 24.4537 16.6871 25.298 18.907" fill="var(--fill-0, #EA4840)"/>
<path id="Fill 98" fill-rule="evenodd" clip-rule="evenodd" d="M20.8151 32.8087C16.7073 35.7831 11.0872 35.9903 6.61448 33.6475C4.5804 32.582 2.8687 31.019 1.59483 29.1685C2.81148 31.4676 4.70483 33.4262 7.06594 34.6631C11.2209 36.8394 16.4422 36.6467 20.2585 33.8834C21.9263 32.6759 23.282 31.0738 24.2418 29.263C23.3126 30.6265 22.1578 31.8363 20.8151 32.8087" fill="var(--fill-0, #EA4840)"/>
<path id="Fill 99" fill-rule="evenodd" clip-rule="evenodd" d="M9.66062 12.3823C14.7984 10.9962 20.3875 12.7951 23.9229 16.6825C21.0355 12.1065 15.2875 9.78055 10.0687 11.1884C6.83516 12.0606 4.00411 14.268 2.23281 17.1207C4.19006 14.8628 6.78514 13.158 9.66062 12.3823" fill="var(--fill-0, #EA4840)"/>
<path id="Fill 100" fill-rule="evenodd" clip-rule="evenodd" d="M24.5556 23.6319C24.4459 27.2378 22.5762 30.7736 19.5718 32.9038C16.171 35.3143 11.519 35.4825 7.81656 33.5838C3.07217 31.1506 0.444558 25.5173 2.08345 20.49C3.29033 16.7877 6.51457 13.7311 10.376 12.7216C15.0974 11.4874 20.3005 13.5406 22.8895 17.5695C24.104 19.4595 24.6185 21.5615 24.5556 23.6319" fill="var(--fill-0, #EA4840)"/>
<path id="Fill 101" fill-rule="evenodd" clip-rule="evenodd" d="M10.3749 13.3542C6.51218 14.3595 3.28684 17.4032 2.07988 21.0896C1.77647 22.0159 1.61945 22.9629 1.59483 23.9066C1.70129 27.8737 4.11422 31.7002 7.81462 33.5893C11.5184 35.4799 16.1719 35.3125 19.5739 32.9121C22.5793 30.7909 24.4496 27.27 24.5594 23.6793C24.5601 23.6558 24.5604 23.6319 24.5608 23.6084C24.5142 21.7461 23.9882 19.8779 22.893 18.1817C20.3028 14.1698 15.098 12.1252 10.3749 13.3542" fill="var(--fill-0, #F7F7F7)"/>
<path id="Fill 103" fill-rule="evenodd" clip-rule="evenodd" d="M15.1066 8.17672C13.6153 7.84264 12.221 7.84264 10.73 8.17703C10.5267 8.22965 10.4658 8.57383 10.5908 8.93576C10.7161 9.29799 10.9513 9.54977 11.1182 9.50664C12.3508 9.23527 13.4858 9.23527 14.7184 9.50633C14.8857 9.54947 15.1209 9.29738 15.2459 8.93514C15.3708 8.57322 15.3097 8.22904 15.1066 8.17672" fill="var(--fill-0, #FFC84B)"/>
<path id="Fill 104" fill-rule="evenodd" clip-rule="evenodd" d="M10.526 8.66875C10.5364 8.74212 10.5537 8.81812 10.5785 8.8951C10.7042 9.28293 10.9401 9.55252 11.1076 9.50633C12.3591 9.3455 13.4958 9.33043 14.7183 9.506C14.886 9.55219 15.1219 9.28228 15.2473 8.89444C15.2848 8.77881 15.3053 8.66482 15.3106 8.56033C13.8916 8.96061 11.6225 9.06543 10.526 8.66875" fill="var(--fill-0, #FE8B28)"/>
<path id="Fill 105" fill-rule="evenodd" clip-rule="evenodd" d="M14.3537 8.08456C14.3537 8.17209 13.711 8.24324 12.9183 8.24324C12.1256 8.24356 11.483 8.1724 11.483 8.08488C11.483 7.99735 12.1256 7.9262 12.9183 7.9262C13.711 7.9262 14.3537 7.99704 14.3537 8.08456" fill="var(--fill-0, #FFE466)"/>
<path id="Fill 106" fill-rule="evenodd" clip-rule="evenodd" d="M23.2848 23.6116C23.2893 23.8744 23.111 24.0907 22.8861 24.0954C22.2734 24.1079 20.7351 23.7781 20.7331 23.6637C20.7312 23.5485 22.2484 23.1575 22.8697 23.1446C23.0946 23.1404 23.2803 23.3493 23.2848 23.6116" fill="var(--fill-0, #333333)"/>
<path id="Fill 107" fill-rule="evenodd" clip-rule="evenodd" d="M2.55194 23.6077C2.55965 23.3452 2.77065 23.1378 3.02335 23.1447C3.71277 23.1631 5.42598 23.5693 5.42247 23.6842C5.41932 23.7988 3.6956 24.1139 2.99601 24.0949C2.74331 24.0883 2.54458 23.8702 2.55194 23.6077" fill="var(--fill-0, #333333)"/>
<path id="Fill 108" fill-rule="evenodd" clip-rule="evenodd" d="M13.2289 13.6332C13.4932 13.6286 13.7108 13.8061 13.7154 14.0294C13.728 14.6383 13.3964 16.1672 13.2808 16.1695C13.1655 16.1715 12.7715 14.6634 12.7589 14.0454C12.7543 13.8221 12.9646 13.6374 13.2289 13.6332" fill="var(--fill-0, #333333)"/>
<path id="Fill 109" fill-rule="evenodd" clip-rule="evenodd" d="M12.9056 33.29C12.6416 33.2834 12.4333 33.097 12.4401 32.8738C12.4585 32.2646 12.8672 30.751 12.9829 30.7538C13.0983 30.7567 13.4148 32.2798 13.396 32.8976C13.3892 33.1211 13.1697 33.2967 12.9056 33.29" fill="var(--fill-0, #333333)"/>
<path id="Fill 110" fill-rule="evenodd" clip-rule="evenodd" d="M13.7158 23.7788C13.7158 24.1289 13.4301 24.4128 13.0779 24.4128C12.7256 24.4128 12.4399 24.1289 12.4399 23.7788C12.4399 23.4285 12.7256 23.1446 13.0779 23.1446C13.4301 23.1446 13.7158 23.4285 13.7158 23.7788" fill="var(--fill-0, #333333)"/>
<path id="Fill 111" fill-rule="evenodd" clip-rule="evenodd" d="M13.2658 24.0958C13.1261 24.0958 12.9884 24.0335 12.9004 23.9165L9.97335 20.0255C9.82773 19.8319 9.8732 19.5615 10.0748 19.422C10.2764 19.2822 10.5578 19.3256 10.7034 19.5191L13.6305 23.4101C13.7761 23.6037 13.7306 23.8741 13.529 24.0139C13.4493 24.0689 13.357 24.0958 13.2658 24.0958" fill="var(--fill-0, #333333)"/>
<path id="Fill 112" fill-rule="evenodd" clip-rule="evenodd" d="M13.3036 23.7787C13.2102 23.7787 13.1227 23.7204 13.0904 23.6272C13.0494 23.5097 13.1122 23.3816 13.2297 23.3411L22.0284 20.3033C22.1473 20.2634 22.2747 20.325 22.3156 20.4425C22.3562 20.5597 22.2938 20.6881 22.176 20.7286L13.3776 23.7665C13.3528 23.7747 13.328 23.7787 13.3036 23.7787" fill="var(--fill-0, #333333)"/>
</g>
</svg>
