<svg preserveAspectRatio="none" width="100%" height="100%" overflow="visible" style="display: block;" viewBox="0 0 13.9054 27.9908" fill="none" xmlns="http://www.w3.org/2000/svg">
<g id="Cactus">
<path id="Fill 52" fill-rule="evenodd" clip-rule="evenodd" d="M4.05006 9.15089H11.4753V8.47804H4.05006V9.15089Z" fill="var(--fill-0, #362F2B)"/>
<path id="Fill 53" fill-rule="evenodd" clip-rule="evenodd" d="M9.45028 7.67058H10.1253V1.74946H9.45028V7.67058Z" fill="var(--fill-0, #362F2B)"/>
<path id="Fill 54" fill-rule="evenodd" clip-rule="evenodd" d="M11.3403 3.49887H8.10016L9.72022 0.942023L11.3403 3.49887" fill="var(--fill-0, #362F2B)"/>
<path id="Fill 55" fill-rule="evenodd" clip-rule="evenodd" d="M5.26514 7.67058H5.94016V1.74946H5.26514V7.67058Z" fill="var(--fill-0, #362F2B)"/>
<path id="Fill 56" fill-rule="evenodd" clip-rule="evenodd" d="M7.29015 3.49887H4.05006L5.67019 0.942023L7.29015 3.49887" fill="var(--fill-0, #362F2B)"/>
<path id="Fill 164" fill-rule="evenodd" clip-rule="evenodd" d="M11.7454 1.95139C11.3343 1.98519 11.3068 2.01241 11.2728 2.42229C11.2389 2.01241 11.2114 1.98519 10.8003 1.95139C11.2114 1.91741 11.2389 1.89018 11.2728 1.4803C11.3068 1.89018 11.3343 1.91741 11.7454 1.95139" fill="var(--fill-0, #F0E8D8)"/>
<path id="Fill 165" fill-rule="evenodd" clip-rule="evenodd" d="M11.6104 2.28773C11.2924 2.01912 11.2532 2.01912 10.9354 2.28773C11.2048 1.97075 11.2048 1.93167 10.9354 1.61488C11.2532 1.8833 11.2924 1.8833 11.6104 1.61488C11.3409 1.93167 11.3409 1.97075 11.6104 2.28773" fill="var(--fill-0, #F0E8D8)"/>
<path id="Fill 166" fill-rule="evenodd" clip-rule="evenodd" d="M13.2305 4.57535C12.7607 4.6141 12.7293 4.64524 12.6906 5.11371C12.6517 4.64524 12.6203 4.6141 12.1504 4.57535C12.6203 4.53676 12.6517 4.50545 12.6906 4.03715C12.7293 4.50545 12.7607 4.53676 13.2305 4.57535" fill="var(--fill-0, #F0E8D8)"/>
<path id="Fill 167" fill-rule="evenodd" clip-rule="evenodd" d="M13.0954 4.97915C12.7139 4.65694 12.6669 4.65694 12.2854 4.97915C12.6087 4.59896 12.6087 4.55193 12.2854 4.17173C12.6669 4.49412 12.7139 4.49412 13.0954 4.17173C12.772 4.55193 12.772 4.59896 13.0954 4.97915" fill="var(--fill-0, #F0E8D8)"/>
<path id="Fill 168" fill-rule="evenodd" clip-rule="evenodd" d="M13.5004 6.93032C13.0893 6.96418 13.0617 6.99149 13.0278 7.40141C12.994 6.99149 12.9664 6.96418 12.5553 6.93032C12.9664 6.89645 12.994 6.86914 13.0278 6.45941C13.0617 6.86914 13.0893 6.89645 13.5004 6.93032" fill="var(--fill-0, #F0E8D8)"/>
<path id="Fill 169" fill-rule="evenodd" clip-rule="evenodd" d="M13.3653 7.26685C13.0473 6.99839 13.008 6.99839 12.6903 7.26685C12.9597 6.95018 12.9597 6.91104 12.6903 6.59399C13.008 6.86264 13.0473 6.86264 13.3653 6.59399C13.0958 6.91104 13.0958 6.95018 13.3653 7.26685" fill="var(--fill-0, #F0E8D8)"/>
<path id="Fill 170" fill-rule="evenodd" clip-rule="evenodd" d="M13.6354 9.35257C13.1069 9.39599 13.0714 9.43136 13.0279 9.95823C12.9843 9.43136 12.9489 9.39599 12.4204 9.35257C12.9489 9.30916 12.9843 9.27396 13.0279 8.7471C13.0714 9.27396 13.1069 9.30916 13.6354 9.35257" fill="var(--fill-0, #F0E8D8)"/>
<path id="Fill 171" fill-rule="evenodd" clip-rule="evenodd" d="M13.5003 9.68916C13.1187 9.36696 13.0718 9.36696 12.6903 9.68916C13.0135 9.30902 13.0135 9.26203 12.6903 8.88173C13.0718 9.2041 13.1187 9.2041 13.5003 8.88173C13.177 9.26203 13.177 9.30902 13.5003 9.68916" fill="var(--fill-0, #F0E8D8)"/>
<path id="Fill 172" fill-rule="evenodd" clip-rule="evenodd" d="M13.5004 11.7076C13.0306 11.7464 12.9992 11.7775 12.9603 12.246C12.9216 11.7775 12.8902 11.7464 12.4204 11.7076C12.8902 11.669 12.9216 11.6377 12.9603 11.1694C12.9992 11.6377 13.0306 11.669 13.5004 11.7076" fill="var(--fill-0, #F0E8D8)"/>
<path id="Fill 173" fill-rule="evenodd" clip-rule="evenodd" d="M13.3654 12.1114C12.9838 11.7892 12.9369 11.7892 12.5553 12.1114C12.8787 11.7312 12.8787 11.6843 12.5553 11.3039C12.9369 11.6263 12.9838 11.6263 13.3654 11.3039C13.042 11.6843 13.042 11.7312 13.3654 12.1114" fill="var(--fill-0, #F0E8D8)"/>
<path id="Fill 174" fill-rule="evenodd" clip-rule="evenodd" d="M13.0955 13.928C12.6844 13.9619 12.6568 13.9892 12.623 14.3991C12.5891 13.9892 12.5615 13.9619 12.1504 13.928C12.5615 13.8941 12.5891 13.8668 12.623 13.4571C12.6568 13.8668 12.6844 13.8941 13.0955 13.928" fill="var(--fill-0, #F0E8D8)"/>
<path id="Fill 175" fill-rule="evenodd" clip-rule="evenodd" d="M12.9604 14.2646C12.6426 13.996 12.6033 13.996 12.2854 14.2646C12.5548 13.9478 12.5548 13.9087 12.2854 13.5917C12.6033 13.8603 12.6426 13.8603 12.9604 13.5917C12.6909 13.9087 12.6909 13.9478 12.9604 14.2646" fill="var(--fill-0, #F0E8D8)"/>
<path id="Fill 176" fill-rule="evenodd" clip-rule="evenodd" d="M1.62008 13.1206C1.20905 13.1545 1.18151 13.1818 1.14748 13.5917C1.11363 13.1818 1.08609 13.1545 0.675055 13.1206C1.08609 13.0868 1.11363 13.0595 1.14748 12.6497C1.18151 13.0595 1.20905 13.0868 1.62008 13.1206" fill="var(--fill-0, #F0EADF)"/>
<path id="Fill 177" fill-rule="evenodd" clip-rule="evenodd" d="M1.48504 13.4572C1.16709 13.1886 1.1278 13.1886 0.810022 13.4572C1.07941 13.1402 1.07941 13.1011 0.810022 12.7843C1.1278 13.0528 1.16709 13.0528 1.48504 12.7843C1.21565 13.1011 1.21565 13.1402 1.48504 13.4572" fill="var(--fill-0, #F0EADF)"/>
<path id="Fill 178" fill-rule="evenodd" clip-rule="evenodd" d="M1.215 10.7657C0.745116 10.8042 0.713826 10.8354 0.674984 11.304C0.636321 10.8354 0.604852 10.8042 0.134967 10.7657C0.604852 10.727 0.636321 10.6956 0.674984 10.2274C0.713826 10.6956 0.745116 10.727 1.215 10.7657" fill="var(--fill-0, #F0EADF)"/>
<path id="Fill 179" fill-rule="evenodd" clip-rule="evenodd" d="M1.07996 11.1695C0.698603 10.8469 0.651482 10.8469 0.269934 11.1695C0.593296 10.7891 0.593296 10.7422 0.269934 10.362C0.651482 10.6842 0.698603 10.6842 1.07996 10.362C0.756598 10.7422 0.756598 10.7891 1.07996 11.1695" fill="var(--fill-0, #F0EADF)"/>
<path id="Fill 180" fill-rule="evenodd" clip-rule="evenodd" d="M1.35 8.27602C0.821517 8.31944 0.786034 8.35481 0.742486 8.88168C0.698938 8.35481 0.663634 8.31944 0.134967 8.27602C0.663634 8.23261 0.698938 8.19741 0.742486 7.67054C0.786034 8.19741 0.821517 8.23261 1.35 8.27602" fill="var(--fill-0, #F0EADF)"/>
<path id="Fill 181" fill-rule="evenodd" clip-rule="evenodd" d="M1.07996 8.61255C0.698602 8.29026 0.65146 8.29026 0.269934 8.61255C0.593336 8.23233 0.593336 8.18535 0.269934 7.80513C0.65146 8.12742 0.698602 8.12742 1.07996 7.80513C0.756726 8.18535 0.756726 8.23233 1.07996 8.61255" fill="var(--fill-0, #F0EADF)"/>
<path id="Fill 182" fill-rule="evenodd" clip-rule="evenodd" d="M2.02498 3.56623C1.61375 3.60027 1.58634 3.6274 1.55237 4.03723C1.5184 3.6274 1.491 3.60027 1.07996 3.56623C1.491 3.53237 1.5184 3.50507 1.55237 3.09523C1.58634 3.50507 1.61375 3.53237 2.02498 3.56623" fill="var(--fill-0, #F0EADF)"/>
<path id="Fill 183" fill-rule="evenodd" clip-rule="evenodd" d="M1.88999 3.90256C1.5722 3.63391 1.53295 3.63391 1.21498 3.90256C1.48441 3.5857 1.48441 3.54638 1.21498 3.22971C1.53295 3.49836 1.5722 3.49836 1.88999 3.22971C1.62055 3.54638 1.62055 3.5857 1.88999 3.90256" fill="var(--fill-0, #F0EADF)"/>
<path id="Fill 184" fill-rule="evenodd" clip-rule="evenodd" d="M1.48506 5.71933C1.07402 5.75319 1.04661 5.7805 1.01264 6.19033C0.978669 5.7805 0.951266 5.75319 0.540033 5.71933C0.951266 5.68548 0.978669 5.65817 1.01264 5.24833C1.04661 5.65817 1.07402 5.68548 1.48506 5.71933" fill="var(--fill-0, #F0EADF)"/>
<path id="Fill 185" fill-rule="evenodd" clip-rule="evenodd" d="M1.35008 6.05572C1.0321 5.78707 0.992846 5.78707 0.675055 6.05572C0.944495 5.73904 0.944495 5.69972 0.675055 5.38286C0.992846 5.65151 1.0321 5.65151 1.35008 5.38286C1.08064 5.69972 1.08064 5.73904 1.35008 6.05572" fill="var(--fill-0, #F0EADF)"/>
<path id="Fill 186" fill-rule="evenodd" clip-rule="evenodd" d="M3.24004 1.61485C2.88768 1.64379 2.86416 1.66723 2.83512 2.01856C2.80607 1.66723 2.78236 1.64379 2.43001 1.61485C2.78236 1.58572 2.80607 1.56246 2.83512 1.21113C2.86416 1.56246 2.88768 1.58572 3.24004 1.61485" fill="var(--fill-0, #F0EADF)"/>
<path id="Fill 187" fill-rule="evenodd" clip-rule="evenodd" d="M3.10499 1.88405C2.85067 1.66922 2.81931 1.66922 2.56498 1.88405C2.7805 1.63054 2.7805 1.59928 2.56498 1.34577C2.81931 1.5606 2.85067 1.5606 3.10499 1.34577C2.88947 1.59928 2.88947 1.63054 3.10499 1.88405" fill="var(--fill-0, #F0EADF)"/>
<path id="Fill 188" fill-rule="evenodd" clip-rule="evenodd" d="M1.56359 16.4177C3.00396 16.4177 4.97127 16.4177 6.88524 16.4177V5.49316e-05C-2.5385 5.49316e-05 1.56359 16.4177 1.56359 16.4177" fill="var(--fill-0, #9FE47D)"/>
<path id="Fill 189" fill-rule="evenodd" clip-rule="evenodd" d="M6.88513 5.49316e-05V16.4177C8.97268 16.4177 10.9974 16.4177 12.2068 16.4177C12.2068 16.4177 16.3088 5.49316e-05 6.88513 5.49316e-05" fill="var(--fill-0, #5ED026)"/>
<path id="Fill 190" fill-rule="evenodd" clip-rule="evenodd" d="M4.10876 16.4177C4.86025 16.4177 5.88662 16.4177 6.8852 16.4177V5.49316e-05C1.96833 5.49316e-05 4.10876 16.4177 4.10876 16.4177" fill="var(--fill-0, #99C981)"/>
<path id="Fill 191" fill-rule="evenodd" clip-rule="evenodd" d="M6.88513 5.49316e-05V16.4177C7.97435 16.4177 9.03058 16.4177 9.6617 16.4177C9.6617 16.4177 11.8018 5.49316e-05 6.88513 5.49316e-05" fill="var(--fill-0, #78BD55)"/>
<path id="Fill 192" fill-rule="evenodd" clip-rule="evenodd" d="M4.34004 16.4177C5.02891 16.4177 5.96979 16.4177 6.88518 16.4177V5.49316e-05C2.37816 5.49316e-05 4.34004 16.4177 4.34004 16.4177" fill="var(--fill-0, #5ED026)"/>
<path id="Fill 193" fill-rule="evenodd" clip-rule="evenodd" d="M6.88513 5.49316e-05V16.4177C7.88359 16.4177 8.85182 16.4177 9.4303 16.4177C9.4303 16.4177 11.3921 5.49316e-05 6.88513 5.49316e-05" fill="var(--fill-0, #9FE47D)"/>
<path id="Fill 194" fill-rule="evenodd" clip-rule="evenodd" d="M4.32003 8.14154C3.90896 8.17533 3.88141 8.20279 3.84751 8.61254C3.81362 8.20279 3.78624 8.17533 3.375 8.14154C3.78624 8.10759 3.81362 8.08013 3.84751 7.67054C3.88141 8.08013 3.90896 8.10759 4.32003 8.14154" fill="var(--fill-0, #F0EADF)"/>
<path id="Fill 195" fill-rule="evenodd" clip-rule="evenodd" d="M4.1851 8.47798C3.86732 8.20931 3.82802 8.20931 3.51008 8.47798C3.77961 8.16106 3.77961 8.12188 3.51008 7.80513C3.82802 8.07363 3.86732 8.07363 4.1851 7.80513C3.91573 8.12188 3.91573 8.16106 4.1851 8.47798" fill="var(--fill-0, #F0EADF)"/>
<path id="Fill 196" fill-rule="evenodd" clip-rule="evenodd" d="M4.32003 10.4293C3.90883 10.4631 3.88147 10.4905 3.84743 10.9003C3.81356 10.4905 3.78602 10.4631 3.375 10.4293C3.78602 10.3954 3.81356 10.3681 3.84743 9.95834C3.88147 10.3681 3.90883 10.3954 4.32003 10.4293" fill="var(--fill-0, #F0EADF)"/>
<path id="Fill 197" fill-rule="evenodd" clip-rule="evenodd" d="M4.1851 10.7657C3.8672 10.4971 3.82798 10.4971 3.51008 10.7657C3.77943 10.4489 3.77943 10.4096 3.51008 10.0928C3.82798 10.3614 3.8672 10.3614 4.1851 10.0928C3.91557 10.4096 3.91557 10.4489 4.1851 10.7657" fill="var(--fill-0, #F0EADF)"/>
<path id="Fill 198" fill-rule="evenodd" clip-rule="evenodd" d="M4.45503 13.3227C3.98523 13.3613 3.95381 13.3926 3.91493 13.8609C3.87622 13.3926 3.84481 13.3613 3.375 13.3227C3.84481 13.2839 3.87622 13.2526 3.91493 12.7843C3.95381 13.2526 3.98523 13.2839 4.45503 13.3227" fill="var(--fill-0, #F0EADF)"/>
<path id="Fill 199" fill-rule="evenodd" clip-rule="evenodd" d="M4.3201 13.7263C3.93859 13.4041 3.89159 13.4041 3.51008 13.7263C3.83344 13.3459 3.83344 13.2991 3.51008 12.9189C3.89159 13.2411 3.93859 13.2411 4.3201 12.9189C3.99674 13.2991 3.99674 13.3459 4.3201 13.7263" fill="var(--fill-0, #F0EADF)"/>
<path id="Fill 200" fill-rule="evenodd" clip-rule="evenodd" d="M4.59004 5.8539C4.06155 5.89731 4.02607 5.9325 3.98252 6.45947C3.93879 5.9325 3.90349 5.89731 3.375 5.8539C3.90349 5.8105 3.93879 5.7753 3.98252 5.24833C4.02607 5.7753 4.06155 5.8105 4.59004 5.8539" fill="var(--fill-0, #F0EADF)"/>
<path id="Fill 201" fill-rule="evenodd" clip-rule="evenodd" d="M4.3201 6.32481C3.93858 6.00245 3.89143 6.00245 3.51008 6.32481C3.83331 5.94468 3.83331 5.89752 3.51008 5.51739C3.89143 5.83975 3.93858 5.83975 4.3201 5.51739C3.9967 5.89752 3.9967 5.94468 4.3201 6.32481" fill="var(--fill-0, #F0EADF)"/>
<path id="Fill 202" fill-rule="evenodd" clip-rule="evenodd" d="M9.31522 1.07661C8.84535 1.11524 8.81396 1.14672 8.7752 1.6149C8.73645 1.14672 8.70506 1.11524 8.23519 1.07661C8.70506 1.03799 8.73645 1.00669 8.7752 0.53833C8.81396 1.00669 8.84535 1.03799 9.31522 1.07661" fill="var(--fill-0, #F0EADF)"/>
<path id="Fill 203" fill-rule="evenodd" clip-rule="evenodd" d="M9.18023 1.48034C8.79872 1.15809 8.75172 1.15809 8.37021 1.48034C8.6935 1.10005 8.6935 1.0532 8.37021 0.672913C8.75172 0.995162 8.79872 0.995162 9.18023 0.672913C8.85676 1.0532 8.85676 1.10005 9.18023 1.48034" fill="var(--fill-0, #F0EADF)"/>
<path id="Fill 204" fill-rule="evenodd" clip-rule="evenodd" d="M9.85523 2.82603C9.50276 2.85512 9.47916 2.87848 9.45014 3.22975C9.42112 2.87848 9.39751 2.85512 9.04521 2.82603C9.39751 2.79695 9.42112 2.77359 9.45014 2.42232C9.47916 2.77359 9.50276 2.79695 9.85523 2.82603" fill="var(--fill-0, #F0EADF)"/>
<path id="Fill 205" fill-rule="evenodd" clip-rule="evenodd" d="M9.72023 3.2297C9.40223 2.96125 9.36301 2.96125 9.04521 3.2297C9.31471 2.91292 9.31471 2.87383 9.04521 2.55685C9.36301 2.82549 9.40223 2.82549 9.72023 2.55685C9.45072 2.87383 9.45072 2.91292 9.72023 3.2297" fill="var(--fill-0, #F0EADF)"/>
<path id="Fill 206" fill-rule="evenodd" clip-rule="evenodd" d="M10.2603 5.04657C9.84913 5.08037 9.82163 5.10759 9.78792 5.51747C9.75401 5.10759 9.72651 5.08037 9.31531 5.04657C9.72651 5.01258 9.75401 4.98536 9.78792 4.57548C9.82163 4.98536 9.84913 5.01258 10.2603 5.04657" fill="var(--fill-0, #F0EADF)"/>
<path id="Fill 207" fill-rule="evenodd" clip-rule="evenodd" d="M10.1253 5.38286C9.80748 5.11417 9.76809 5.11417 9.45028 5.38286C9.71975 5.06598 9.71975 5.0267 9.45028 4.71C9.76809 4.9785 9.80748 4.9785 10.1253 4.71C9.85582 5.0267 9.85582 5.06598 10.1253 5.38286" fill="var(--fill-0, #F0EADF)"/>
<path id="Fill 208" fill-rule="evenodd" clip-rule="evenodd" d="M10.3953 7.33416C9.98409 7.36808 9.95673 7.39537 9.9227 7.80516C9.88885 7.39537 9.86131 7.36808 9.45028 7.33416C9.86131 7.30041 9.88885 7.27295 9.9227 6.86316C9.95673 7.27295 9.98409 7.30041 10.3953 7.33416" fill="var(--fill-0, #F0EADF)"/>
<path id="Fill 209" fill-rule="evenodd" clip-rule="evenodd" d="M10.2603 7.67054C9.94236 7.40183 9.90307 7.40183 9.5853 7.67054C9.85469 7.35361 9.85469 7.31444 9.5853 6.99769C9.90307 7.26621 9.94236 7.26621 10.2603 6.99769C9.99093 7.31444 9.99093 7.35361 10.2603 7.67054" fill="var(--fill-0, #F0EADF)"/>
<path id="Fill 210" fill-rule="evenodd" clip-rule="evenodd" d="M10.3953 9.68911C10.043 9.71821 10.0194 9.74175 9.99039 10.0929C9.9612 9.74175 9.93774 9.71821 9.5853 9.68911C9.93774 9.66034 9.9612 9.63663 9.99039 9.28548C10.0194 9.63663 10.043 9.66034 10.3953 9.68911" fill="var(--fill-0, #F0EADF)"/>
<path id="Fill 211" fill-rule="evenodd" clip-rule="evenodd" d="M10.3952 9.95833C10.0773 9.68992 10.0381 9.68992 9.72021 9.95833C9.98979 9.64156 9.98979 9.60245 9.72021 9.28548C10.0381 9.55408 10.0773 9.55408 10.3952 9.28548C10.1258 9.60245 10.1258 9.64156 10.3952 9.95833" fill="var(--fill-0, #F0EADF)"/>
<path id="Fill 212" fill-rule="evenodd" clip-rule="evenodd" d="M10.3953 11.9767C9.92538 12.0154 9.89408 12.0468 9.85523 12.5151C9.81657 12.0468 9.78509 12.0154 9.31531 11.9767C9.78509 11.9383 9.81657 11.9069 9.85523 11.4386C9.89408 11.9069 9.92538 11.9383 10.3953 11.9767" fill="var(--fill-0, #F0EADF)"/>
<path id="Fill 213" fill-rule="evenodd" clip-rule="evenodd" d="M10.2603 12.3806C9.87894 12.0583 9.83182 12.0583 9.45028 12.3806C9.77364 12.0004 9.77364 11.9534 9.45028 11.5732C9.83182 11.8956 9.87894 11.8956 10.2603 11.5732C9.93713 11.9534 9.93713 12.0004 10.2603 12.3806" fill="var(--fill-0, #F0EADF)"/>
<path id="Fill 214" fill-rule="evenodd" clip-rule="evenodd" d="M10.2603 14.332C9.84922 14.3656 9.82167 14.3931 9.78791 14.8028C9.75381 14.3931 9.72642 14.3656 9.31531 14.332C9.72642 14.298 9.75381 14.2707 9.78791 13.8608C9.82167 14.2707 9.84922 14.298 10.2603 14.332" fill="var(--fill-0, #F0EADF)"/>
<path id="Fill 215" fill-rule="evenodd" clip-rule="evenodd" d="M10.1253 14.6683C9.80735 14.3997 9.76822 14.3997 9.45028 14.6683C9.71969 14.3515 9.71969 14.3123 9.45028 13.9954C9.76822 14.264 9.80735 14.264 10.1253 13.9954C9.85588 14.3123 9.85588 14.3515 10.1253 14.6683" fill="var(--fill-0, #F0EADF)"/>
<path id="Fill 216" fill-rule="evenodd" clip-rule="evenodd" d="M4.72515 3.83519C4.3141 3.86906 4.28651 3.89637 4.25254 4.30628C4.21876 3.89637 4.19117 3.86906 3.78012 3.83519C4.19117 3.80152 4.21876 3.77401 4.25254 3.36429C4.28651 3.77401 4.3141 3.80152 4.72515 3.83519" fill="var(--fill-0, #F0EADF)"/>
<path id="Fill 217" fill-rule="evenodd" clip-rule="evenodd" d="M4.59011 4.17173C4.27222 3.90334 4.23298 3.90334 3.91509 4.17173C4.18445 3.85495 4.18445 3.81583 3.91509 3.49887C4.23298 3.76763 4.27222 3.76763 4.59011 3.49887C4.32056 3.81583 4.32056 3.85495 4.59011 4.17173" fill="var(--fill-0, #F0EADF)"/>
<path id="Fill 218" fill-rule="evenodd" clip-rule="evenodd" d="M5.13012 1.74948C4.77767 1.77842 4.75415 1.80187 4.72493 2.1532C4.69608 1.80187 4.67237 1.77842 4.3201 1.74948C4.67237 1.72054 4.69608 1.6971 4.72493 1.34577C4.75415 1.6971 4.77767 1.72054 5.13012 1.74948" fill="var(--fill-0, #F0EADF)"/>
<path id="Fill 219" fill-rule="evenodd" clip-rule="evenodd" d="M4.99514 2.01858C4.74081 1.80365 4.70945 1.80365 4.45512 2.01858C4.67064 1.76515 4.67064 1.73373 4.45512 1.4803C4.70945 1.69523 4.74081 1.69523 4.99514 1.4803C4.77962 1.73373 4.77962 1.76515 4.99514 2.01858" fill="var(--fill-0, #F0EADF)"/>
<path id="Fill 220" fill-rule="evenodd" clip-rule="evenodd" d="M13.7185 18.7053H0.186865L0 16.2831H13.9054L13.7185 18.7053" fill="var(--fill-0, #E6AB67)"/>
<path id="Fill 221" fill-rule="evenodd" clip-rule="evenodd" d="M11.9729 27.9908H1.7974L0.675055 18.84H13.0954L11.9729 27.9908" fill="var(--fill-0, #D49D5F)"/>
<path id="Fill 222" fill-rule="evenodd" clip-rule="evenodd" d="M9.03121 18.84L8.64025 27.9908H11.9699L13.0954 18.84H9.03121" fill="var(--fill-0, #C28A4C)"/>
<path id="Fill 223" fill-rule="evenodd" clip-rule="evenodd" d="M9.45788 16.2831L9.31531 18.7053H13.7191L13.9054 16.2831H9.45788" fill="var(--fill-0, #D49D5F)"/>
<path id="Fill 224" fill-rule="evenodd" clip-rule="evenodd" d="M13.0182 19.3782H0.752051L0.675055 18.7054H13.0954L13.0182 19.3782" fill="var(--fill-0, #B07B3D)"/>
</g>
</svg>
