<svg preserveAspectRatio="none" width="100%" height="100%" overflow="visible" style="display: block;" viewBox="0 0 27 23.8235" fill="none" xmlns="http://www.w3.org/2000/svg">
<g id="Logo">
<path id="Vector" d="M0 1.76675V22.0568C0 23.0318 0.790306 23.8235 1.76437 23.8235H13.8773C23.0307 23.8235 27 18.6917 27 11.888C27 5.11054 23.0307 0 13.8773 0H1.7627C0.791894 0 0 0.790139 0 1.76675Z" fill="var(--fill-0, white)"/>
<path id="Vector_2" d="M13.8725 22.1988H3.33848C2.89076 22.1997 2.46098 22.022 2.14341 21.7046C1.82577 21.3872 1.64622 20.956 1.64407 20.5057V3.31732C1.64447 3.09393 1.68862 2.87277 1.77399 2.66654C1.85936 2.46031 1.98435 2.27298 2.14167 2.11526C2.29898 1.95763 2.48568 1.83264 2.69104 1.74751C2.89639 1.66246 3.11637 1.61886 3.33848 1.61926H13.8725C23.8632 1.61926 25.356 8.05161 25.356 11.8862C25.356 18.5377 21.2778 22.1988 13.8725 22.1988ZM3.33848 2.18856C3.03997 2.18816 2.75353 2.30665 2.54166 2.5182C2.32987 2.72975 2.21004 3.01706 2.20829 3.31732V20.5073C2.20829 21.1306 2.71399 21.6361 3.33848 21.6361H13.8725C20.9135 21.6361 24.7918 18.1745 24.7918 11.8894C24.7918 3.44819 17.9507 2.18856 13.8725 2.18856H3.33848Z" fill="var(--fill-0, black)"/>
<path id="Vector_3" d="M8.10248 4.98147V19.9712H14.6216C20.5439 19.9712 23.11 16.6209 23.11 11.8964C23.11 7.36994 20.5439 3.85271 14.6216 3.85271H9.231C8.93273 3.85232 8.64645 3.97088 8.4349 4.18243C8.22335 4.39406 8.10383 4.68137 8.10248 4.98147Z" fill="var(--fill-0, #CC0066)"/>
<path id="Vector_4" d="M20.5286 9.8723V12.7907H22.2719V13.4532H19.7432V9.87064L20.5286 9.8723ZM17.9106 9.8723L19.2489 13.4532H18.4326L18.1626 12.6582H16.8227L16.543 13.4532H15.7479L17.1024 9.87064L17.9106 9.8723ZM17.9561 12.0676L17.5041 10.754H17.4943L17.0292 12.0676H17.9561ZM15.2161 9.8723V10.5332H13.3266V11.302H15.06V11.9122H13.3266V12.7907H15.2568V13.4532H12.5411V9.87064L15.2161 9.8723ZM10.3963 9.8723C10.6159 9.87064 10.8354 9.90661 11.0403 9.98189C11.2404 10.0542 11.4214 10.1712 11.5699 10.3242C11.7184 10.4773 11.8303 10.6623 11.8973 10.8653C12.0536 11.3513 12.0616 11.8732 11.92 12.3638C11.8591 12.5734 11.7562 12.7683 11.6176 12.9363C11.4787 13.0989 11.3053 13.2281 11.1102 13.3142C10.8848 13.4111 10.6414 13.4585 10.3963 13.4532H8.85317V9.87064H10.398L10.3963 9.8723ZM10.341 12.7907C10.4549 12.7907 10.5654 12.7727 10.6727 12.7351C10.7805 12.6972 10.878 12.6345 10.9573 12.5519C11.0472 12.4568 11.1159 12.3436 11.159 12.2198C11.213 12.0581 11.2383 11.8881 11.2338 11.7176C11.2338 11.554 11.2175 11.3904 11.1818 11.2284C11.15 11.0927 11.0896 10.9655 11.0045 10.8554C10.9208 10.7492 10.8109 10.6668 10.6858 10.6166C10.5301 10.5574 10.3643 10.5296 10.1979 10.5348H9.63697V12.7907H10.341Z" fill="var(--fill-0, white)"/>
<path id="Vector_5" d="M5.15905 14.2647C5.85009 14.2647 6.40954 14.8242 6.40954 15.5146V19.9708C5.0273 19.9708 3.90855 18.8501 3.90855 17.4678V15.5146C3.90831 15.3495 3.94063 15.1861 4.00361 15.0337C4.06658 14.8813 4.15894 14.743 4.27535 14.6268C4.39185 14.5106 4.53003 14.4188 4.68194 14.3566C4.83393 14.2944 4.99665 14.2632 5.16063 14.2647H5.15905Z" fill="var(--fill-0, black)"/>
<path id="Vector_6" d="M5.15578 13.3148C6.06727 13.3148 6.80627 12.575 6.80627 11.6625C6.80627 10.7499 6.06727 10.0102 5.15578 10.0102C4.24421 10.0102 3.50529 10.7499 3.50529 11.6625C3.50529 12.575 4.24421 13.3148 5.15578 13.3148Z" fill="var(--fill-0, black)"/>
</g>
</svg>
