<svg preserveAspectRatio="none" width="100%" height="100%" overflow="visible" style="display: block;" viewBox="0 0 8.74274 30.6838" fill="none" xmlns="http://www.w3.org/2000/svg">
<g id="Ketchup Copy">
<path id="Fill 191" fill-rule="evenodd" clip-rule="evenodd" d="M4.83924 6.71387e-05H3.90345L3.36348 5.17699H5.37921L4.83924 6.71387e-05" fill="var(--fill-0, #DCE1DE)"/>
<path id="Fill 192" fill-rule="evenodd" clip-rule="evenodd" d="M3.90345 6.71387e-05L3.36348 5.17699H4.04642L4.2205 6.71387e-05H3.90345" fill="var(--fill-0, #FCFAFA)"/>
<path id="Fill 193" fill-rule="evenodd" clip-rule="evenodd" d="M4.83926 6.71387e-05H4.52182L4.6963 5.17699H5.37923L4.83926 6.71387e-05" fill="var(--fill-0, #BEC8C4)"/>
<path id="Fill 194" fill-rule="evenodd" clip-rule="evenodd" d="M6.26623 5.0568H2.47659C2.1682 5.0568 1.9185 5.30539 1.9185 5.61192V7.32385H6.82431V5.61192C6.82431 5.30539 6.57422 5.0568 6.26623 5.0568" fill="var(--fill-0, #DCE1DE)"/>
<path id="Fill 195" fill-rule="evenodd" clip-rule="evenodd" d="M3.08509 5.0568H2.47659C2.1682 5.0568 1.9185 5.30539 1.9185 5.61192V7.32385H3.08509V5.0568" fill="var(--fill-0, #FCFAFA)"/>
<path id="Fill 196" fill-rule="evenodd" clip-rule="evenodd" d="M5.6577 5.0568H6.2662C6.57419 5.0568 6.82428 5.30539 6.82428 5.61192V7.32385H5.6577V5.0568" fill="var(--fill-0, #BEC8C4)"/>
<path id="Fill 197" fill-rule="evenodd" clip-rule="evenodd" d="M7.20718 6.15834H1.53572C1.22733 6.15834 0.977631 6.40693 0.977631 6.71307V8.84154H7.76527V6.71307C7.76527 6.40693 7.51518 6.15834 7.20718 6.15834" fill="var(--fill-0, #FCFAFA)"/>
<path id="Fill 198" fill-rule="evenodd" clip-rule="evenodd" d="M4.0465 8.84154H4.69635V6.15834H4.0465V8.84154Z" fill="var(--fill-0, #DCE1DE)"/>
<path id="Fill 199" fill-rule="evenodd" clip-rule="evenodd" d="M7.20712 6.15834H7.11575V8.84154H7.76521V6.71307C7.76521 6.40693 7.51512 6.15834 7.20712 6.15834" fill="var(--fill-0, #DCE1DE)"/>
<path id="Fill 200" fill-rule="evenodd" clip-rule="evenodd" d="M5.58129 8.84154H6.23075V6.15834H5.58129V8.84154Z" fill="var(--fill-0, #DCE1DE)"/>
<path id="Fill 201" fill-rule="evenodd" clip-rule="evenodd" d="M1.62709 6.15834H1.53572C1.22733 6.15834 0.977631 6.40693 0.977631 6.71307V8.84154H1.62709V6.15834" fill="var(--fill-0, #DCE1DE)"/>
<path id="Fill 202" fill-rule="evenodd" clip-rule="evenodd" d="M2.51204 8.84154H3.16149V6.15834H2.51204V8.84154Z" fill="var(--fill-0, #DCE1DE)"/>
<path id="Fill 203" fill-rule="evenodd" clip-rule="evenodd" d="M8.17283 30.6838H0.569915C0.254834 30.6838 1.2207e-05 30.4301 1.2207e-05 30.1169V9.08826C1.2207e-05 8.77508 0.254834 8.52101 0.569915 8.52101H8.17283C8.48712 8.52101 8.74273 8.77508 8.74273 9.08826V30.1169C8.74273 30.4301 8.48712 30.6838 8.17283 30.6838" fill="var(--fill-0, #D71E46)"/>
<path id="Fill 204" fill-rule="evenodd" clip-rule="evenodd" d="M0.977631 30.6838H2.35808V8.52101H0.977631V30.6838Z" fill="var(--fill-0, #D71E46)"/>
<path id="Fill 205" fill-rule="evenodd" clip-rule="evenodd" d="M8.74269 30.1169V9.08826C8.74269 8.77508 8.48708 8.52101 8.17278 8.52101H6.51073V30.6838H8.17278C8.48708 30.6838 8.74269 30.4301 8.74269 30.1169" fill="var(--fill-0, #871429)"/>
</g>
</svg>
