<svg preserveAspectRatio="none" width="100%" height="100%" overflow="visible" style="display: block;" viewBox="0 0 38 12" fill="none" xmlns="http://www.w3.org/2000/svg">
<g id="Logo">
<path id="Vector" fill-rule="evenodd" clip-rule="evenodd" d="M19.6528 3.83633C19.6311 5.50785 21.1761 6.44077 22.34 6.99532C23.5359 7.56442 23.9376 7.9293 23.933 8.43818C23.9239 9.21705 22.9791 9.5607 22.0947 9.57413C20.552 9.59753 19.655 9.1668 18.9419 8.841L18.3861 11.384C19.1016 11.7065 20.4264 11.9877 21.8003 12C25.0251 12 27.1349 10.4434 27.1463 8.02972C27.1589 4.96672 22.8136 4.79708 22.8432 3.42795C22.8535 3.01283 23.2587 2.56987 24.1464 2.45715C24.5857 2.40022 25.7987 2.35673 27.1737 2.976L27.7135 0.515551C26.974 0.252151 26.0235 0 24.8401 0C21.8049 0 19.6699 1.57785 19.6528 3.83633ZM32.8994 0.212025C32.3106 0.212025 31.8143 0.547875 31.5929 1.06343L26.9863 11.8193H30.2087L30.85 10.0863H34.7879L35.1598 11.8193H38L35.5218 0.212025H32.8994ZM33.3516 3.34762L34.2816 7.70617H31.7347L33.3516 3.34762ZM15.7455 0.212025L13.2055 11.8193H16.2762L18.8151 0.212025H15.7455ZM11.2032 0.212025L8.00706 8.11238L6.71414 1.39485C6.56245 0.645 5.96334 0.212025 5.29811 0.212025H0.0730286L0 0.549C1.07263 0.7767 2.29132 1.14383 3.02959 1.53653C3.48148 1.77645 3.61046 1.98623 3.75873 2.55645L6.20753 11.8193H9.4528L14.428 0.212025H11.2032Z" fill="var(--fill-0, #1B16E6)"/>
</g>
</svg>
