<svg width="127" height="24" viewBox="0 0 127 24" fill="none" xmlns="http://www.w3.org/2000/svg">
<path d="M36.8753 0.124115C38.4127 0.124298 39.4771 1.25287 39.2532 2.64462L35.8821 23.5851C35.8519 23.7723 35.6725 23.9257 35.4827 23.9259H30.5335C30.3437 23.9259 30.2133 23.7724 30.2435 23.5851L31.3782 16.5372C31.4084 16.3499 31.2771 16.1964 31.0872 16.1964H25.4749C25.2851 16.1964 25.0803 16.3435 25.0198 16.5235L22.6429 23.5987C22.5823 23.7787 22.3776 23.9259 22.1878 23.9259H17.2386C17.049 23.9257 16.943 23.7785 17.0032 23.5987L24.0423 2.64462C24.5102 1.25275 26.1362 0.124115 27.6741 0.124115H36.8753ZM57.0501 0.124115C58.5876 0.124115 59.6528 1.25275 59.429 2.64462L58.5726 7.98837C58.5424 8.17565 58.3619 8.32919 58.1722 8.32919H53.223C53.0337 8.32883 52.9031 8.17541 52.9329 7.98837L53.3265 5.52548C53.3987 5.07674 53.0551 4.71318 52.5599 4.71298H48.8538C48.3584 4.71339 47.8975 5.07687 47.8255 5.52548L45.7327 18.5245C45.6606 18.9732 46.0038 19.3366 46.4993 19.337H50.2044C50.7002 19.337 51.1606 18.9734 51.2327 18.5245L51.6321 16.0616C51.6625 15.8744 51.8429 15.721 52.0325 15.7208H56.9808C57.1707 15.7208 57.3011 15.8743 57.2708 16.0616L56.4085 21.4054C56.1842 22.7974 54.7559 23.9259 53.2181 23.9259H42.0091C40.4716 23.9257 39.4063 22.7973 39.6302 21.4054L42.6497 2.64462C42.8738 1.25293 44.3025 0.124438 45.8402 0.124115H57.0501ZM77.0169 0.124115C77.2066 0.124115 77.3371 0.277624 77.3069 0.464935L76.5101 5.40927C76.4796 5.59639 76.2994 5.74905 76.1097 5.74911H71.8333C71.6438 5.7493 71.4633 5.90284 71.4329 6.08994L68.6185 23.5851C68.5881 23.7724 68.4078 23.9259 68.2181 23.9259H63.2698C63.0803 23.9257 62.9489 23.7723 62.9788 23.5851L65.7943 6.08994C65.8241 5.90287 65.6937 5.74929 65.5042 5.74911H61.4066C61.2171 5.74893 61.0866 5.5963 61.1165 5.40927L61.9134 0.464935C61.9437 0.27774 62.1243 0.124304 62.3138 0.124115H77.0169ZM84.7894 0.125092C84.9789 0.125323 85.1096 0.278742 85.0794 0.465912L81.3568 23.5851C81.3265 23.7723 81.1469 23.9258 80.9573 23.9259H76.0081C75.8188 23.9255 75.688 23.7721 75.7181 23.5851L79.4398 0.465912C79.4699 0.278721 79.6505 0.125288 79.8402 0.125092H84.7894ZM112.2 0.125092C112.389 0.12531 112.617 0.26264 112.706 0.429779L118.552 11.3966C118.641 11.5639 118.739 11.5475 118.769 11.3604L120.523 0.465912C120.553 0.278594 120.734 0.12528 120.923 0.125092H125.872C126.062 0.12518 126.193 0.278532 126.162 0.465912L122.441 23.5851C122.41 23.7723 122.23 23.9259 122.04 23.9259H118.899C118.709 23.9257 118.48 23.7886 118.391 23.6212L112.545 12.6544C112.456 12.4872 112.359 12.5032 112.328 12.6905L110.576 23.5851C110.545 23.7724 110.365 23.9259 110.175 23.9259H105.226C105.036 23.9257 104.906 23.7723 104.936 23.5851L108.658 0.465912C108.688 0.278702 108.867 0.125457 109.057 0.125092H112.2ZM102.523 0.124115C104.06 0.124115 105.125 1.24057 104.901 2.61728L101.881 21.172C101.657 22.5488 100.228 23.6651 98.6907 23.6651H87.4808C85.9431 23.6649 84.8784 22.5487 85.1028 21.172L88.1224 2.61728C88.3465 1.24068 89.7754 0.124285 91.3128 0.124115H102.523ZM94.3265 4.6622C93.831 4.66237 93.3708 5.02221 93.2982 5.46591L91.2054 18.3233C91.1337 18.767 91.4764 19.1268 91.972 19.127H95.6771C96.1726 19.127 96.6329 18.7671 96.7054 18.3233L98.7982 5.46591C98.87 5.02206 98.5273 4.6622 98.0316 4.6622H94.3265ZM29.8851 4.71298C29.3893 4.71298 28.8647 5.07658 28.7142 5.52548L26.7806 11.2804C26.7202 11.4602 26.8263 11.6075 27.0159 11.6075H31.8265C32.0161 11.6073 32.1958 11.4539 32.2259 11.2667L33.1507 5.52548C33.2229 5.07665 32.8795 4.71309 32.3841 4.71298H29.8851Z" fill="white"/>
<path d="M8.69075 0.122406C8.88021 0.12258 8.98557 0.269783 8.92512 0.449554L1.14973 23.597C1.07528 23.8176 0.966032 23.9242 0.73762 23.9242H0.252269C0.062582 23.9242 -0.0433466 23.7768 0.0169171 23.597L7.79328 0.449554C7.86859 0.242793 7.97155 0.122406 8.20637 0.122406H8.69075ZM14.3519 0.122406C14.5418 0.122406 14.6477 0.269709 14.5872 0.449554L6.81086 23.597C6.75015 23.7767 6.54539 23.9232 6.35578 23.9232H4.78157C4.59203 23.923 4.48608 23.7766 4.54621 23.597L12.3226 0.449554C12.3831 0.269821 12.588 0.122589 12.7777 0.122406H14.3519ZM21.1458 0.122406C21.3356 0.122406 21.4415 0.269709 21.3812 0.449554L13.6058 23.597C13.5452 23.7767 13.3403 23.923 13.1507 23.9232H10.4437C10.2542 23.923 10.1482 23.7766 10.2083 23.597L17.9837 0.449554C18.0442 0.269921 18.2492 0.122754 18.4388 0.122406H21.1458Z" fill="#62B5E5"/>
</svg>
