<svg preserveAspectRatio="none" width="100%" height="100%" overflow="visible" style="display: block;" viewBox="0 0 22.2158 25.7852" fill="none" xmlns="http://www.w3.org/2000/svg">
<path id="Stripes" d="M9.02243 0C9.21933 2.16266e-05 9.32937 0.159633 9.26657 0.354492L1.19333 25.4316C1.11604 25.6705 1.00267 25.7852 0.765596 25.7852H0.26169C0.0647927 25.7852 -0.0449366 25.6263 0.0175496 25.4316L8.09079 0.354492C8.16897 0.130464 8.27574 3.35288e-05 8.5195 0H9.02243ZM14.9004 0C15.0974 5.15388e-05 15.2071 0.159774 15.1445 0.354492L7.07126 25.4307C7.00846 25.6255 6.79565 25.7852 6.5986 25.7852H4.96384C4.76696 25.7849 4.65695 25.6254 4.7197 25.4307L12.7929 0.354492C12.8558 0.159805 13.0687 0.000102548 13.2656 0H14.9004ZM21.9541 0C22.151 0 22.2607 0.159743 22.1982 0.354492L14.125 25.4307C14.0622 25.6254 13.8502 25.7849 13.6533 25.7852H10.8427C10.6458 25.7851 10.535 25.6255 10.5976 25.4307L18.6709 0.354492C18.7337 0.159856 18.9467 0.000185894 19.1435 0H21.9541Z" fill="var(--fill-0, #62B5E5)"/>
</svg>
