<svg preserveAspectRatio="none" width="100%" height="100%" overflow="visible" style="display: block;" viewBox="0 0 27.7272 14.1977" fill="none" xmlns="http://www.w3.org/2000/svg">
<g id="Dumbbel Copy">
<path id="Fill 231" fill-rule="evenodd" clip-rule="evenodd" d="M21.4735 4.72344C20.6664 5.0523 19.8028 5.11934 18.9682 4.91821L17.8626 4.65216C16.6257 4.354 15.3693 4.20051 14.1087 4.18287V4.17581H13.853C12.514 4.17581 11.1781 4.3353 9.86453 4.65216L8.75899 4.91821C7.92435 5.11934 7.06075 5.0523 6.25366 4.72344L5.46141 4.40093V9.79713L6.25366 9.47427C7.06075 9.14541 7.92435 9.07836 8.75899 9.27949L9.86453 9.54589C11.1781 9.86241 12.514 10.0219 13.853 10.0219H14.1087V10.0148C15.3693 9.9972 16.6257 9.8437 17.8626 9.54589L18.9682 9.27949C19.8028 9.07836 20.6664 9.14541 21.4735 9.47427L22.2658 9.79713V4.40093L21.4735 4.72344" fill="var(--fill-0, #676767)"/>
<path id="Fill 232" fill-rule="evenodd" clip-rule="evenodd" d="M21.4735 5.04486C20.6664 5.31573 19.8028 5.37083 18.9682 5.20518L17.8626 4.98585C16.6257 4.74021 15.3693 4.61366 14.1087 4.59909V4.5934H13.853C12.514 4.5934 11.1781 4.72493 9.86453 4.98585L8.75899 5.20518C7.92435 5.37083 7.06075 5.31573 6.25366 5.04486L5.46141 4.77896V6.03842L6.25366 6.15359C7.06075 6.2709 7.92435 6.29508 8.75899 6.22327L9.86453 6.128C11.1781 6.01496 12.514 5.95808 13.853 5.95808H14.1087V5.96057C15.3693 5.96661 16.6257 6.02136 17.8626 6.128L18.9682 6.22327C19.8028 6.29508 20.6664 6.2709 21.4735 6.15359L22.2658 6.03842V4.77896L21.4735 5.04486" fill="var(--fill-0, #676767)"/>
<path id="Fill 233" fill-rule="evenodd" clip-rule="evenodd" d="M21.0054 4.67809V9.10204C21.1775 9.1489 21.3482 9.20676 21.5163 9.27952L22.2657 9.60432V4.17581L21.5163 4.50025C21.3482 4.57302 21.1775 4.63088 21.0054 4.67809" fill="var(--fill-0, #676767)"/>
<path id="Fill 234" fill-rule="evenodd" clip-rule="evenodd" d="M6.72174 4.67809C6.54967 4.63088 6.37893 4.57302 6.21086 4.50025L5.46141 4.17581V9.60432L6.21086 9.27952C6.37893 9.20676 6.54967 9.1489 6.72174 9.10204V4.67809" fill="var(--fill-0, #676767)"/>
<path id="Fill 235" fill-rule="evenodd" clip-rule="evenodd" d="M18.9682 7.59102L17.8626 7.76595C16.6257 7.96183 15.3693 8.06274 14.1087 8.07426V8.0788H13.853C12.514 8.0788 11.1781 7.97405 9.86453 7.76595L8.75899 7.59102C7.92435 7.45869 7.06075 7.50303 6.25366 7.71916L5.46141 7.9311V9.79948L6.25366 9.47999C7.06075 9.15457 7.92435 9.08823 8.75899 9.28725L9.86453 9.55087C11.1781 9.86407 12.514 10.0219 13.853 10.0219H14.1087V10.0149C15.3693 9.99745 16.6257 9.84556 17.8626 9.55087L18.9682 9.28725C19.8028 9.08823 20.6664 9.15457 21.4735 9.47999L22.2658 9.79948V7.9311L21.4735 7.71916C20.6664 7.50303 19.8028 7.45869 18.9682 7.59102" fill="var(--fill-0, #676767)"/>
<path id="Fill 236" fill-rule="evenodd" clip-rule="evenodd" d="M0 10.8571H5.88152V3.34068H0V10.8571Z" fill="var(--fill-0, #7F7F7F)"/>
<path id="Fill 237" fill-rule="evenodd" clip-rule="evenodd" d="M5.1896 0H0.69228C0.310079 0 4.3869e-06 0.314855 4.3869e-06 0.702949V3.34062H5.88152V0.702949C5.88152 0.314855 5.5718 0 5.1896 0" fill="var(--fill-0, #676767)"/>
<path id="Fill 238" fill-rule="evenodd" clip-rule="evenodd" d="M5.88152 10.8571H0V13.4948C0 13.8829 0.310075 14.1977 0.692276 14.1977H5.18959C5.5718 14.1977 5.88152 13.8829 5.88152 13.4948V10.8571" fill="var(--fill-0, #676767)"/>
<path id="Fill 239" fill-rule="evenodd" clip-rule="evenodd" d="M21.8456 10.8571H27.7271V3.34068H21.8456V10.8571Z" fill="var(--fill-0, #7F7F7F)"/>
<path id="Fill 240" fill-rule="evenodd" clip-rule="evenodd" d="M27.0349 7.05719e-05H22.5375C22.1553 7.05719e-05 21.8456 0.314925 21.8456 0.703019V3.34069H27.7271V0.703019C27.7271 0.314925 27.4171 7.05719e-05 27.0349 7.05719e-05" fill="var(--fill-0, #676767)"/>
<path id="Fill 241" fill-rule="evenodd" clip-rule="evenodd" d="M27.7271 10.8571H21.8456V13.4948C21.8456 13.8829 22.1553 14.1977 22.5375 14.1977H27.0349C27.4171 14.1977 27.7271 13.8829 27.7271 13.4948V10.8571" fill="var(--fill-0, #676767)"/>
</g>
</svg>
