<svg preserveAspectRatio="none" width="100%" height="100%" overflow="visible" style="display: block;" viewBox="0 0 53.3333 47.9045" fill="none" xmlns="http://www.w3.org/2000/svg">
<path id="Vector" d="M26.6667 47.9045C26.22 47.9045 25.7746 47.7925 25.3711 47.5685C24.3359 46.993 0 33.2743 0 15.9045C0 6.12979 5.91402 1.4384 11.4492 0.308265C17.2383 -0.866135 22.9896 1.37985 26.6667 5.94091C30.3464 1.37718 36.099 -0.863735 41.8854 0.308265C47.4193 1.4384 53.3333 6.12979 53.3333 15.9045C53.3333 33.2743 28.9972 46.993 27.9609 47.5685C27.5599 47.7925 27.112 47.9045 26.6667 47.9045ZM14.3997 5.34716C13.7488 5.34716 13.1159 5.41093 12.5156 5.53466C8.01802 6.4528 5.33333 10.329 5.33333 15.9045C5.33333 28.1298 21.8581 39.1805 26.6667 42.1362C31.4765 39.1805 48 28.1298 48 15.9045C48 10.329 45.3153 6.4528 40.8177 5.53466C36.8673 4.73253 31.5417 6.45506 29.1198 12.1335C28.7006 13.1167 27.7344 13.7546 26.6667 13.7546C25.5976 13.7546 24.6327 13.1164 24.2135 12.1335C22.1613 7.31853 18.0144 5.34716 14.3997 5.34716Z" fill="var(--fill-0, #B6BEC8)"/>
</svg>
