<svg preserveAspectRatio="none" width="100%" height="100%" overflow="visible" style="display: block;" viewBox="0 0 30.6343 19.1204" fill="none" xmlns="http://www.w3.org/2000/svg">
<path id="XMLID 3" d="M28.4514 0L28.7746 0.000618663C28.8621 0.00123732 28.9497 0.00218462 29.0377 0.00458189C29.1908 0.00871913 29.3699 0.0170129 29.5369 0.0469403C29.682 0.0730783 29.8037 0.112827 29.9205 0.172295C30.0359 0.230893 30.1415 0.307683 30.2338 0.399804C30.3264 0.492544 30.4033 0.598372 30.4626 0.714969C30.5218 0.83087 30.5613 0.952009 30.5873 1.0982C30.6171 1.26335 30.6254 1.44295 30.6296 1.59701C30.6319 1.68397 30.6331 1.77093 30.6335 1.85996C30.6343 1.96762 30.6343 2.07523 30.6343 2.18311V16.9375C30.6343 17.0454 30.6343 17.1528 30.6335 17.2628C30.6331 17.3497 30.6319 17.4367 30.6295 17.5238C30.6254 17.6776 30.6171 17.8572 30.5869 18.0242C30.5613 18.1684 30.5218 18.2896 30.4623 18.4061C30.4031 18.5224 30.3264 18.6281 30.2342 18.7202C30.1414 18.813 30.0361 18.8896 29.9194 18.9487C29.8034 19.0079 29.6819 19.0476 29.5382 19.0735C29.3679 19.1039 29.1813 19.1122 29.0407 19.116C28.9523 19.118 28.8643 19.1192 28.7741 19.1196C28.6667 19.1205 28.5589 19.1204 28.4514 19.1204H2.1829C2.18146 19.1204 2.18007 19.1204 2.17862 19.1204C2.07241 19.1204 1.96598 19.1204 1.85783 19.1196C1.76966 19.1192 1.68167 19.118 1.59661 19.1161C1.45285 19.1122 1.26611 19.1039 1.09716 19.0737C0.952224 19.0476 0.830715 19.0079 0.713248 18.948C0.597659 18.8894 0.492428 18.8129 0.399611 18.7199C0.307509 18.628 0.23097 18.5226 0.171792 18.4061C0.112556 18.2897 0.0729237 18.1682 0.0468649 18.0223C0.0167423 17.8555 0.00846783 17.6767 0.00433253 17.5239C0.00197198 17.4365 0.000986002 17.349 0.000425348 17.262L0 17.0053L1.93591e-05 16.9375V2.18311L0 2.11533L0.000405989 1.85915C0.000985975 1.77167 0.00197198 1.6842 0.00433253 1.5968C0.00846783 1.44386 0.0167423 1.26499 0.0471142 1.09683C0.072943 0.952242 0.112556 0.830715 0.172101 0.71377C0.230815 0.598179 0.30749 0.49266 0.400077 0.400094C0.492295 0.307838 0.59787 0.231144 0.714196 0.171985C0.830406 0.112807 0.952145 0.0730783 1.09708 0.0469982C1.26408 0.0169936 1.44332 0.00871911 1.59682 0.00456254C1.68432 0.00218459 1.77182 0.0012373 1.85866 0.000637976L2.1829 0H28.4514" fill="var(--fill-0, white)"/>
</svg>
