<svg preserveAspectRatio="none" width="100%" height="100%" overflow="visible" style="display: block;" viewBox="0 0 31.9995 19.2" fill="none" xmlns="http://www.w3.org/2000/svg">
<g id="Logo">
<path id="Vector" fill-rule="evenodd" clip-rule="evenodd" d="M9.72559 19.2C14.9034 19.2 19.2019 14.9019 19.2019 9.72464C19.2019 4.29808 14.9034 0 9.72559 0C4.2985 0 0 4.29808 0 9.72464C0 14.9019 4.2985 19.2 9.72559 19.2Z" fill="var(--fill-0, #E7001A)"/>
<path id="Vector_2" fill-rule="evenodd" clip-rule="evenodd" d="M22.5233 19.2C27.701 19.2 31.9995 14.9019 31.9995 9.72464C31.9995 4.29808 27.701 0 22.5233 0C17.0962 0 12.7977 4.29808 12.7977 9.72464C12.7977 14.9019 17.0962 19.2 22.5233 19.2Z" fill="var(--fill-0, #F49B1C)"/>
<path id="Vector_3" opacity="0.3" fill-rule="evenodd" clip-rule="evenodd" d="M16.0169 2.45703C14.0337 4.22927 12.7977 6.81479 12.7977 9.72479C12.7977 12.5012 14.0337 15.0246 16.0169 16.7682C17.9617 15.0246 19.1977 12.5012 19.1977 9.72479C19.1977 6.81479 17.9617 4.22927 16.0169 2.45703Z" fill="var(--fill-0, #E7001A)"/>
</g>
</svg>
