<svg preserveAspectRatio="none" width="100%" height="100%" overflow="visible" style="display: block;" viewBox="0 0 32 20.4861" fill="none" xmlns="http://www.w3.org/2000/svg">
<path id="XMLID 4" d="M29.1343 0H2.86575C2.75634 0 2.64674 0 2.53754 0.000637985C2.44522 0.0012953 2.35312 0.00231995 2.26102 0.00483322C2.06015 0.0102658 1.85756 0.0221168 1.6592 0.0577667C1.45768 0.0940352 1.27015 0.153194 1.0872 0.24634C0.907346 0.337804 0.742688 0.457435 0.599993 0.600189C0.457237 0.742943 0.337606 0.907331 0.246161 1.08738C0.152996 1.27033 0.0937985 1.45791 0.0577814 1.65959C0.0219401 1.85801 0.0100098 2.06056 0.00459659 2.26121C0.00212198 2.35331 0.0010606 2.44542 0.000459349 2.5375C-0.000178636 2.64694 3.40259e-05 2.75631 3.40259e-05 2.86595V17.6204C3.40259e-05 17.73 -0.000178636 17.8392 0.000459349 17.9488C0.0010606 18.0409 0.00212198 18.133 0.00459659 18.2251C0.0100098 18.4256 0.0219401 18.6282 0.0577814 18.8265C0.0937985 19.0283 0.152996 19.2158 0.246161 19.3988C0.337606 19.5788 0.457237 19.7434 0.599993 19.8859C0.742688 20.0289 0.907346 20.1485 1.0872 20.2398C1.27015 20.3332 1.45768 20.3923 1.6592 20.4286C1.85756 20.464 2.06015 20.4761 2.26102 20.4815C2.35312 20.4836 2.44522 20.4848 2.53754 20.4853C2.64674 20.4861 2.75634 20.4861 2.86575 20.4861H29.1343C29.2435 20.4861 29.3531 20.4861 29.4623 20.4853C29.5544 20.4848 29.6465 20.4836 29.739 20.4815C29.9395 20.4761 30.142 20.464 30.3409 20.4286C30.5421 20.3923 30.7297 20.3332 30.9126 20.2398C31.0927 20.1485 31.2569 20.0289 31.3999 19.8859C31.5424 19.7434 31.662 19.5788 31.7537 19.3988C31.8471 19.2158 31.9062 19.0283 31.942 18.8265C31.9779 18.6282 31.9895 18.4256 31.995 18.2251C31.9975 18.133 31.9987 18.0409 31.9992 17.9488C32 17.8392 32 17.73 32 17.6204V2.86595C32 2.75631 32 2.64694 31.9992 2.5375C31.9987 2.44542 31.9975 2.35331 31.995 2.26121C31.9895 2.06056 31.9779 1.85801 31.942 1.65959C31.9062 1.45791 31.8471 1.27033 31.7537 1.08738C31.662 0.907331 31.5424 0.742943 31.3999 0.600189C31.2569 0.457435 31.0927 0.337804 30.9126 0.24634C30.7297 0.153194 30.5421 0.0940352 30.3409 0.0577667C30.142 0.0221168 29.9395 0.0102658 29.739 0.00483322C29.6465 0.00231995 29.5544 0.0012953 29.4623 0.000637985C29.3531 0 29.2435 0 29.1343 0Z" fill="var(--fill-0, black)"/>
</svg>
